<?xml version="1.0" encoding="utf-8"?>
<!-- Generator: Adobe Illustrator 24.0.1, SVG Export Plug-In . SVG Version: 6.00 Build 0)  -->
<svg version="1.1" id="Layer_1" xmlns="http://www.w3.org/2000/svg" xmlns:xlink="http://www.w3.org/1999/xlink" x="0px" y="0px"
	 viewBox="0 0 500 500" style="enable-background:new 0 0 500 500;" xml:space="preserve">
<style type="text/css">
	.st0{fill:#A46AFF;}
	.st1{fill:#FFFFFF;}
</style>
<g>
	<g>
		<path class="st0" d="M322.27,132.55L322.27,132.55c-21.7-4.43-47.32-6.99-74.77-6.99c-27.45,0-53.06,2.56-74.77,7l0,0
			c0-55.6-66.94-57.01-66.94-57.01v143.03c0,40.95,63.45,74.15,141.71,74.15c78.26,0,141.71-33.2,141.71-74.15c0,0,0,0,0,0v-46.5
			c0,0,0,0,0,0c0,0,0,0,0,0V75.54C389.21,75.54,322.27,76.96,322.27,132.55z"/>
		<circle class="st1" cx="167.56" cy="192.54" r="27.47"/>
		<path class="st1" d="M210.1,272.43l-9.6-25.49c3.54,2.08,9.58,3.87,17.25,5.17L210.1,272.43z"/>
		<path class="st1" d="M284.9,272.43l-7.65-20.32c7.67-1.3,13.71-3.09,17.25-5.17L284.9,272.43z"/>
		
			<ellipse transform="matrix(0.3827 -0.9239 0.9239 0.3827 24.3214 421.4823)" class="st1" cx="327.56" cy="192.54" rx="27.47" ry="27.47"/>
		
			<ellipse transform="matrix(0.6154 -0.7882 0.7882 0.6154 -25.788 332.2305)" class="st0" cx="327.56" cy="192.54" rx="16.38" ry="16.38"/>
		
			<ellipse transform="matrix(0.7071 -0.7071 0.7071 0.7071 -87.0695 174.8784)" class="st0" cx="167.56" cy="192.54" rx="16.38" ry="16.38"/>
	</g>
	<g>
		<path class="st0" d="M43.09,422.99c-0.16,0-0.33-0.04-0.49-0.12c-0.16-0.08-0.3-0.18-0.43-0.3c-0.12-0.12-0.22-0.26-0.3-0.43
			c-0.08-0.16-0.12-0.32-0.12-0.49c0-6.25,0-12.54,0-18.87c0-6.33,0-12.62,0-18.87c0-6.25,0-12.4,0-18.44c0-6.04,0-11.91,0-17.59
			c0-1.7,0-3.39,0-5.05c0-1.66,0-3.35,0-5.05c2.76,0,5.48,0,8.16,0c2.68,0,5.36,0,8.03,0c0.24,0,0.47,0.06,0.67,0.18
			c0.2,0.12,0.37,0.29,0.49,0.49c0.12,0.2,0.18,0.43,0.18,0.67c0,5.68,0,11.4,0,17.17c0,5.76,0,11.55,0,17.35c0,5.8,0,11.59,0,17.35
			c0,5.76,0,11.49,0,17.17h21.18c2.11,0,3.92,0.26,5.42,0.79c1.5,0.53,2.74,1.4,3.71,2.62s1.76,2.76,2.37,4.63
			c0.61,1.87,1.16,4.14,1.64,6.82H43.09z M78.15,398.77c1.62,0,3.21,0,4.75,0c1.54,0,3.06,0,4.56,0c1.5,0,3.1,0,4.81,0
			c0.24,0,0.47,0.06,0.67,0.18c0.2,0.12,0.37,0.29,0.49,0.49c0.12,0.2,0.18,0.43,0.18,0.67c0,1.54,0,3.29,0,5.23c0,1.95,0,4,0,6.15
			c0,2.15,0,4.22,0,6.21c0,1.99,0,3.75,0,5.3c-3.98-0.32-7.1-1.05-9.37-2.19c-2.27-1.14-3.86-2.64-4.75-4.5
			c-0.89-1.87-1.34-4.02-1.34-6.45c0-1.14,0-2.35,0-3.65c0-1.3,0-2.62,0-3.96C78.15,400.9,78.15,399.74,78.15,398.77z"/>
		<path class="st0" d="M120.96,404.49c0,1.7,0.47,2.98,1.4,3.83c0.93,0.85,2.37,1.28,4.32,1.28c2.19,0,4.34-0.24,6.45-0.73
			c2.11-0.49,4.2-1.3,6.27-2.44c2.07-1.13,4.16-2.6,6.27-4.38v10.47h-3.65c-1.06,2.44-2.54,4.53-4.44,6.27
			c-1.91,1.75-4.12,3.09-6.63,4.02c-2.52,0.93-5.28,1.4-8.28,1.4c-3.73,0-6.96-0.73-9.68-2.19c-2.72-1.46-4.81-3.51-6.27-6.15
			c-1.46-2.64-2.19-5.7-2.19-9.19v-4.26c0-2.68,0.45-5.07,1.34-7.18c0.89-2.11,2.17-3.94,3.83-5.48c1.66-1.54,3.67-2.74,6.03-3.59
			c2.35-0.85,4.99-1.28,7.91-1.28c2.84,0,5.62,0,8.34,0c2.72,0,5.31,0,7.79,0c2.47,0,4.81,0,7,0c0.73,0,1.28,0.65,1.64,1.95
			c0.36,1.3,0.59,2.74,0.67,4.32c0.08,1.58,0.12,2.9,0.12,3.96c-2.6,0-5.11,0-7.55,0s-4.89,0-7.37,0c-2.48,0-5.01,0-7.61,0
			c-0.97,0-1.81,0.12-2.5,0.37c-0.69,0.24-1.28,0.61-1.76,1.1c-0.41,0.49-0.75,1.04-1.04,1.64c-0.29,0.61-0.43,1.28-0.43,2.01
			V404.49z M159.92,381.48c0,2.03,0,4,0,5.9c0,1.91,0,3.86,0,5.84c0,1.99,0,3.98,0,5.96c0,1.99,0,3.92,0,5.78
			c0,0.65,0.06,1.22,0.18,1.71c0.12,0.49,0.34,0.89,0.67,1.22c0.24,0.24,0.59,0.43,1.04,0.55c0.45,0.12,0.95,0.18,1.52,0.18
			c0.24,0,0.47,0,0.67,0c0.2,0,0.43,0,0.67,0h2.31c0,2.19,0,4.36,0,6.51s0,4.32,0,6.51c0,0.41-0.12,0.73-0.37,0.97
			s-0.57,0.37-0.97,0.37c-0.41,0-1.4,0-2.98,0c-1.58,0-2.98,0-4.2,0c-2.27,0-4.3-0.37-6.09-1.1c-1.79-0.73-3.37-1.76-4.75-3.1
			c-1.38-1.34-2.43-2.94-3.17-4.81c-0.73-1.87-1.1-3.98-1.1-6.33c0-2.51,0-5.07,0-7.67c0-2.6,0-5.15,0-7.67c0-1.38,0-2.7,0-3.96
			c0-1.26,0-2.54,0-3.83c0-1.3,0-2.6,0-3.9c0-2.35-0.41-4.2-1.22-5.54c-0.81-1.34-2.13-2.29-3.96-2.86
			c-1.83-0.57-4.28-0.85-7.37-0.85c-2.27,0-4.49,0.12-6.63,0.37c-2.15,0.24-4.26,0.57-6.33,0.97c-2.07,0.41-4.16,0.97-6.27,1.7
			h-2.31c0-2.19,0-4.38,0-6.57c0-2.19,0-4.34,0-6.45c0-0.32,0.04-0.57,0.12-0.73c0.08-0.16,0.16-0.28,0.24-0.37
			c0.49-0.49,1.84-1.05,4.08-1.71c2.23-0.65,4.89-1.2,7.97-1.64c3.08-0.45,6.13-0.67,9.13-0.67c5.11,0,9.5,0.47,13.15,1.4
			c3.65,0.93,6.65,2.42,9.01,4.44c2.35,2.03,4.1,4.65,5.24,7.85C159.35,373.18,159.92,377.02,159.92,381.48z"/>
		<path class="st0" d="M213.36,337.78h52.35c0.32,0,0.57,0.06,0.73,0.18c0.16,0.12,0.3,0.26,0.43,0.43
			c0.12,0.16,0.18,0.41,0.18,0.73c0,1.7,0,3.27,0,4.69c0,1.42,0,2.82,0,4.2c0,1.38,0,2.92,0,4.63H214.7c-0.24,0-0.47-0.06-0.67-0.18
			c-0.2-0.12-0.37-0.28-0.49-0.49c-0.12-0.2-0.18-0.43-0.18-0.67c0-2.51,0-4.79,0-6.82C213.36,342.45,213.36,340.21,213.36,337.78z
			 M236.73,422.99c-2.68,0-5.36,0-8.03,0c-2.68,0-5.4,0-8.16,0c-0.24,0-0.47-0.06-0.67-0.18c-0.2-0.12-0.37-0.26-0.49-0.43
			c-0.12-0.16-0.18-0.41-0.18-0.73c0-6.57,0-12.94,0-19.11c0-6.17,0-12.29,0-18.38s0-12.23,0-18.44s0-12.52,0-18.93h18.87
			l-1.34,3.29c0,2.19,0,4.38,0,6.57s0,4.34,0,6.45c0,5.36,0,10.65,0,15.89c0,5.23,0,10.49,0,15.76c0,5.28,0,10.71,0,16.31
			c0,2.11,0,4.18,0,6.21C236.73,419.3,236.73,421.21,236.73,422.99z M229.06,376h32.63c0.41,0,0.73,0.12,0.97,0.37
			c0.24,0.24,0.37,0.57,0.37,0.97c0,1.7,0,3.33,0,4.87c0,1.54,0,3,0,4.38c0,1.38,0,2.84,0,4.38h-33.96V376z"/>
		<path class="st0" d="M305.51,356.04c5.52,0,10.33,1.14,14.43,3.41c4.1,2.27,7.28,5.44,9.56,9.5c2.27,4.06,3.41,8.81,3.41,14.24
			v10.1c0,0.24-0.04,0.47-0.12,0.67c-0.08,0.2-0.22,0.35-0.43,0.43c-0.2,0.08-0.43,0.12-0.67,0.12h-28c-1.38,0-2.78,0-4.2,0
			c-1.42,0-2.82,0-4.2,0h-4.99l-0.37-10.23h27.03c0-0.32,0-0.61,0-0.85s0-0.53,0-0.85c0-2.35-0.24-4.36-0.73-6.03
			c-0.49-1.66-1.26-2.98-2.31-3.96c-0.89-0.97-2.03-1.66-3.41-2.07c-1.38-0.41-3.04-0.61-4.99-0.61c-4.06,0-7.08,0.99-9.07,2.98
			c-1.99,1.99-2.98,5.22-2.98,9.68v14.85c0,1.95,0.26,3.67,0.79,5.17c0.53,1.5,1.28,2.78,2.25,3.83c1.3,1.3,3.02,2.23,5.17,2.8
			c2.15,0.57,4.64,0.85,7.49,0.85c2.92,0,5.52-0.14,7.79-0.43c2.27-0.28,4.38-0.69,6.33-1.22c1.95-0.53,3.85-1.11,5.72-1.76h2.31
			c0,2.03,0,4.08,0,6.15s0,4.16,0,6.27c0,0.16-0.04,0.33-0.12,0.49c-0.08,0.16-0.2,0.33-0.37,0.49c-0.65,0.65-2.09,1.3-4.32,1.95
			c-2.23,0.65-4.91,1.22-8.04,1.7c-3.13,0.49-6.31,0.73-9.56,0.73c-5.28,0-9.92-0.63-13.94-1.89c-4.02-1.26-7.35-3.06-9.98-5.42
			c-2.64-2.35-4.63-5.21-5.97-8.58c-1.34-3.37-2.01-7.16-2.01-11.38v-13.88c0-4.14,0.67-7.87,2.01-11.2
			c1.34-3.33,3.27-6.19,5.78-8.58c2.51-2.39,5.52-4.24,9.01-5.54C297.31,356.69,301.21,356.04,305.51,356.04z"/>
		<path class="st0" d="M365.05,422.99c-1.79,0-3.59,0-5.42,0s-3.63,0-5.42,0c-1.79,0-3.57,0-5.36,0c-0.24,0-0.45-0.02-0.61-0.06
			c-0.16-0.04-0.3-0.12-0.43-0.24c-0.12-0.12-0.2-0.26-0.24-0.43c-0.04-0.16-0.06-0.37-0.06-0.61c0-3,0-6.19,0-9.56
			c0-3.37,0-6.84,0-10.41c0-3.57,0-7.16,0-10.77c0-3.61,0-7.22,0-10.83c0-3.61,0-7.16,0-10.65c0-2.27,0-4.42,0-6.45
			c0-2.03,0-3.85,0-5.48c2.03,0,3.96,0,5.78,0s3.61,0,5.36,0c1.74,0,3.43,0,5.05,0c0.32,0,0.57,0.06,0.73,0.18
			c0.16,0.12,0.3,0.26,0.43,0.43c0.12,0.16,0.18,0.41,0.18,0.73c0,3.73,0,7.67,0,11.81c0,4.14,0,8.36,0,12.66c0,4.3,0,8.7,0,13.21
			c0,4.5,0,8.97,0,13.39C365.05,414.33,365.05,418.69,365.05,422.99z M362.74,369.19h4.87c0.97-3,2.11-5.46,3.41-7.37
			c1.3-1.91,2.9-3.31,4.81-4.2c1.91-0.89,4.08-1.34,6.51-1.34c1.3,0,2.37,0.12,3.23,0.37s1.44,0.49,1.77,0.73
			c0.32,0.24,0.53,0.47,0.61,0.67c0.08,0.2,0.12,0.51,0.12,0.91c0,1.3,0,2.58,0,3.83c0,1.26,0,2.5,0,3.71c0,1.22,0,2.46,0,3.71
			c0,1.26,0,2.54,0,3.83h-2.31c-0.81-0.24-1.7-0.45-2.68-0.61c-0.97-0.16-2.07-0.24-3.29-0.24c-2.52,0-4.73,0.49-6.63,1.46
			c-1.91,0.97-3.67,2.33-5.3,4.08c-1.62,1.75-3.33,3.79-5.11,6.15V369.19z"/>
		<path class="st0" d="M412.24,404.49c0,1.7,0.47,2.98,1.4,3.83c0.93,0.85,2.37,1.28,4.32,1.28c2.19,0,4.34-0.24,6.45-0.73
			c2.11-0.49,4.2-1.3,6.27-2.44c2.07-1.13,4.16-2.6,6.27-4.38v10.47h-3.65c-1.06,2.44-2.54,4.53-4.44,6.27
			c-1.91,1.75-4.12,3.09-6.63,4.02c-2.52,0.93-5.28,1.4-8.28,1.4c-3.73,0-6.96-0.73-9.68-2.19c-2.72-1.46-4.81-3.51-6.27-6.15
			c-1.46-2.64-2.19-5.7-2.19-9.19v-4.26c0-2.68,0.45-5.07,1.34-7.18c0.89-2.11,2.17-3.94,3.83-5.48c1.66-1.54,3.67-2.74,6.03-3.59
			c2.35-0.85,4.99-1.28,7.91-1.28c2.84,0,5.62,0,8.34,0c2.72,0,5.31,0,7.79,0c2.47,0,4.81,0,7,0c0.73,0,1.28,0.65,1.64,1.95
			c0.37,1.3,0.59,2.74,0.67,4.32c0.08,1.58,0.12,2.9,0.12,3.96c-2.6,0-5.11,0-7.55,0s-4.89,0-7.37,0c-2.48,0-5.01,0-7.61,0
			c-0.97,0-1.81,0.12-2.5,0.37c-0.69,0.24-1.28,0.61-1.77,1.1c-0.41,0.49-0.75,1.04-1.04,1.64c-0.29,0.61-0.43,1.28-0.43,2.01
			V404.49z M451.19,381.48c0,2.03,0,4,0,5.9c0,1.91,0,3.86,0,5.84c0,1.99,0,3.98,0,5.96c0,1.99,0,3.92,0,5.78
			c0,0.65,0.06,1.22,0.18,1.71c0.12,0.49,0.34,0.89,0.67,1.22c0.24,0.24,0.59,0.43,1.03,0.55c0.45,0.12,0.95,0.18,1.52,0.18
			c0.24,0,0.47,0,0.67,0c0.2,0,0.43,0,0.67,0h2.31c0,2.19,0,4.36,0,6.51s0,4.32,0,6.51c0,0.41-0.12,0.73-0.37,0.97
			c-0.24,0.24-0.57,0.37-0.97,0.37c-0.41,0-1.4,0-2.98,0c-1.58,0-2.98,0-4.2,0c-2.27,0-4.3-0.37-6.09-1.1
			c-1.79-0.73-3.37-1.76-4.75-3.1c-1.38-1.34-2.43-2.94-3.17-4.81c-0.73-1.87-1.1-3.98-1.1-6.33c0-2.51,0-5.07,0-7.67
			c0-2.6,0-5.15,0-7.67c0-1.38,0-2.7,0-3.96c0-1.26,0-2.54,0-3.83c0-1.3,0-2.6,0-3.9c0-2.35-0.41-4.2-1.22-5.54
			c-0.81-1.34-2.13-2.29-3.96-2.86c-1.83-0.57-4.28-0.85-7.36-0.85c-2.27,0-4.49,0.12-6.63,0.37c-2.15,0.24-4.26,0.57-6.33,0.97
			c-2.07,0.41-4.16,0.97-6.27,1.7h-2.31c0-2.19,0-4.38,0-6.57c0-2.19,0-4.34,0-6.45c0-0.32,0.04-0.57,0.12-0.73
			c0.08-0.16,0.16-0.28,0.24-0.37c0.49-0.49,1.84-1.05,4.08-1.71c2.23-0.65,4.89-1.2,7.97-1.64c3.08-0.45,6.13-0.67,9.13-0.67
			c5.11,0,9.5,0.47,13.15,1.4c3.65,0.93,6.65,2.42,9.01,4.44c2.35,2.03,4.1,4.65,5.24,7.85
			C450.62,373.18,451.19,377.02,451.19,381.48z"/>
	</g>
</g>
</svg>
