<?xml version="1.0" encoding="utf-8"?>
<!-- Generator: Adobe Illustrator 24.0.1, SVG Export Plug-In . SVG Version: 6.00 Build 0)  -->
<svg version="1.1" id="Layer_1" xmlns="http://www.w3.org/2000/svg" xmlns:xlink="http://www.w3.org/1999/xlink" x="0px" y="0px"
	 viewBox="0 0 500 200" style="enable-background:new 0 0 500 200;" xml:space="preserve">
<style type="text/css">
	.st0{fill:#000;}
</style>
<g>
	<path class="st0" d="M214.05,122.98c-0.1,0-0.19-0.02-0.29-0.07c-0.1-0.05-0.18-0.11-0.25-0.18s-0.13-0.16-0.18-0.25
		c-0.05-0.1-0.07-0.19-0.07-0.29c0-3.73,0-7.48,0-11.25s0-7.52,0-11.25c0-3.73,0-7.39,0-11c0-3.6,0-7.1,0-10.49
		c0-1.02,0-2.02,0-3.01c0-0.99,0-2,0-3.01c1.64,0,3.27,0,4.86,0c1.6,0,3.19,0,4.79,0c0.15,0,0.28,0.04,0.4,0.11
		c0.12,0.07,0.22,0.17,0.29,0.29c0.07,0.12,0.11,0.25,0.11,0.4c0,3.39,0,6.8,0,10.23c0,3.44,0,6.88,0,10.34c0,3.46,0,6.91,0,10.34
		c0,3.44,0,6.85,0,10.23h12.63c1.26,0,2.33,0.16,3.23,0.47c0.9,0.32,1.63,0.83,2.21,1.56c0.58,0.73,1.05,1.65,1.42,2.76
		s0.69,2.47,0.98,4.06H214.05z M234.95,108.53c0.97,0,1.91,0,2.83,0c0.92,0,1.83,0,2.72,0c0.89,0,1.85,0,2.87,0
		c0.15,0,0.28,0.04,0.4,0.11c0.12,0.07,0.22,0.17,0.29,0.29c0.07,0.12,0.11,0.25,0.11,0.4c0,0.92,0,1.96,0,3.12
		c0,1.16,0,2.38,0,3.67c0,1.28,0,2.52,0,3.7c0,1.19,0,2.24,0,3.16c-2.37-0.19-4.23-0.63-5.59-1.31c-1.35-0.68-2.3-1.57-2.83-2.69
		c-0.53-1.11-0.8-2.4-0.8-3.85c0-0.68,0-1.4,0-2.18c0-0.77,0-1.56,0-2.36C234.95,109.8,234.95,109.11,234.95,108.53z"/>
	<path class="st0" d="M260.48,111.95c0,1.02,0.28,1.78,0.84,2.29c0.55,0.51,1.41,0.76,2.58,0.76c1.31,0,2.59-0.15,3.85-0.44
		c1.26-0.29,2.5-0.77,3.74-1.45c1.23-0.68,2.48-1.55,3.74-2.61v6.24h-2.18c-0.63,1.45-1.51,2.7-2.65,3.74
		c-1.14,1.04-2.46,1.84-3.96,2.4c-1.5,0.56-3.15,0.83-4.94,0.83c-2.23,0-4.15-0.44-5.77-1.31s-2.87-2.09-3.74-3.67
		c-0.87-1.57-1.31-3.4-1.31-5.48v-2.54c0-1.6,0.27-3.02,0.8-4.28c0.53-1.26,1.29-2.35,2.29-3.27c0.99-0.92,2.19-1.63,3.59-2.14
		c1.4-0.51,2.98-0.76,4.72-0.76c1.69,0,3.35,0,4.97,0c1.62,0,3.17,0,4.64,0s2.87,0,4.17,0c0.44,0,0.76,0.39,0.98,1.16
		c0.22,0.77,0.35,1.63,0.4,2.58c0.05,0.94,0.07,1.73,0.07,2.36c-1.55,0-3.05,0-4.5,0s-2.92,0-4.39,0c-1.48,0-2.99,0-4.54,0
		c-0.58,0-1.08,0.07-1.49,0.22c-0.41,0.15-0.76,0.36-1.05,0.65c-0.24,0.29-0.45,0.62-0.62,0.98c-0.17,0.36-0.25,0.76-0.25,1.2
		V111.95z M283.71,98.23c0,1.21,0,2.38,0,3.52c0,1.14,0,2.3,0,3.48c0,1.19,0,2.37,0,3.56c0,1.19,0,2.33,0,3.45
		c0,0.39,0.04,0.73,0.11,1.02c0.07,0.29,0.21,0.53,0.4,0.73c0.14,0.15,0.35,0.25,0.62,0.33c0.27,0.07,0.57,0.11,0.91,0.11
		c0.15,0,0.28,0,0.4,0c0.12,0,0.25,0,0.4,0h1.38c0,1.31,0,2.6,0,3.88c0,1.28,0,2.58,0,3.88c0,0.24-0.07,0.44-0.22,0.58
		c-0.15,0.15-0.34,0.22-0.58,0.22s-0.83,0-1.78,0s-1.78,0-2.5,0c-1.36,0-2.57-0.22-3.63-0.65c-1.07-0.44-2.01-1.05-2.83-1.85
		c-0.82-0.8-1.45-1.75-1.89-2.87s-0.65-2.37-0.65-3.77c0-1.5,0-3.02,0-4.57c0-1.55,0-3.07,0-4.57c0-0.82,0-1.61,0-2.36
		c0-0.75,0-1.51,0-2.29c0-0.77,0-1.55,0-2.32c0-1.4-0.24-2.5-0.72-3.3c-0.48-0.8-1.27-1.37-2.36-1.71s-2.55-0.51-4.39-0.51
		c-1.36,0-2.68,0.07-3.96,0.22c-1.28,0.15-2.54,0.34-3.77,0.58c-1.23,0.24-2.48,0.58-3.74,1.02h-1.38c0-1.31,0-2.61,0-3.92
		s0-2.59,0-3.85c0-0.19,0.02-0.34,0.07-0.44c0.05-0.1,0.1-0.17,0.14-0.22c0.29-0.29,1.1-0.63,2.43-1.02
		c1.33-0.39,2.91-0.71,4.75-0.98c1.84-0.27,3.65-0.4,5.45-0.4c3.05,0,5.66,0.28,7.84,0.83c2.18,0.56,3.97,1.44,5.37,2.65
		c1.4,1.21,2.44,2.77,3.12,4.68C283.37,93.28,283.71,95.57,283.71,98.23z"/>
	<path class="st0" d="M315.57,72.17h31.21c0.19,0,0.34,0.04,0.44,0.11c0.1,0.07,0.18,0.16,0.25,0.25c0.07,0.1,0.11,0.24,0.11,0.44
		c0,1.02,0,1.95,0,2.79c0,0.85,0,1.68,0,2.5c0,0.82,0,1.74,0,2.76h-31.21c-0.15,0-0.28-0.04-0.4-0.11
		c-0.12-0.07-0.22-0.17-0.29-0.29c-0.07-0.12-0.11-0.25-0.11-0.4c0-1.5,0-2.85,0-4.06C315.57,74.95,315.57,73.62,315.57,72.17z
		 M329.5,122.98c-1.6,0-3.19,0-4.79,0c-1.6,0-3.22,0-4.86,0c-0.14,0-0.28-0.04-0.4-0.11c-0.12-0.07-0.22-0.16-0.29-0.25
		c-0.07-0.1-0.11-0.24-0.11-0.44c0-3.92,0-7.72,0-11.4c0-3.68,0-7.33,0-10.96c0-3.63,0-7.29,0-11c0-3.7,0-7.46,0-11.29h11.25
		l-0.8,1.96c0,1.31,0,2.61,0,3.92s0,2.59,0,3.85c0,3.19,0,6.35,0,9.47s0,6.25,0,9.4c0,3.15,0,6.39,0,9.73c0,1.26,0,2.49,0,3.7
		C329.5,120.78,329.5,121.92,329.5,122.98z M324.93,94.96h19.45c0.24,0,0.44,0.07,0.58,0.22c0.14,0.14,0.22,0.34,0.22,0.58
		c0,1.02,0,1.99,0,2.9c0,0.92,0,1.79,0,2.61c0,0.82,0,1.69,0,2.61h-20.25V94.96z"/>
	<path class="st0" d="M370.51,83.06c3.29,0,6.16,0.68,8.6,2.03c2.44,1.36,4.34,3.24,5.7,5.66c1.36,2.42,2.03,5.25,2.03,8.49v6.02
		c0,0.15-0.03,0.28-0.07,0.4c-0.05,0.12-0.13,0.21-0.25,0.25c-0.12,0.05-0.25,0.07-0.4,0.07h-16.69c-0.82,0-1.66,0-2.5,0
		c-0.85,0-1.68,0-2.51,0h-2.97l-0.22-6.1h16.12c0-0.19,0-0.36,0-0.51c0-0.15,0-0.31,0-0.51c0-1.4-0.15-2.6-0.44-3.59
		c-0.29-0.99-0.75-1.78-1.38-2.36c-0.53-0.58-1.21-0.99-2.03-1.23c-0.82-0.24-1.81-0.36-2.98-0.36c-2.42,0-4.22,0.59-5.41,1.78
		c-1.19,1.19-1.78,3.11-1.78,5.77v8.85c0,1.16,0.16,2.19,0.47,3.08c0.31,0.9,0.76,1.66,1.34,2.29c0.77,0.78,1.8,1.33,3.09,1.67
		c1.28,0.34,2.77,0.51,4.46,0.51c1.74,0,3.29-0.08,4.65-0.25c1.35-0.17,2.61-0.41,3.77-0.73c1.16-0.31,2.3-0.67,3.41-1.05h1.38
		c0,1.21,0,2.43,0,3.67c0,1.23,0,2.48,0,3.74c0,0.1-0.03,0.19-0.07,0.29c-0.05,0.1-0.12,0.19-0.22,0.29
		c-0.39,0.39-1.25,0.77-2.58,1.16c-1.33,0.39-2.93,0.73-4.79,1.02s-3.76,0.44-5.7,0.44c-3.15,0-5.92-0.38-8.31-1.13
		c-2.4-0.75-4.38-1.83-5.95-3.23c-1.57-1.4-2.76-3.11-3.56-5.12c-0.8-2.01-1.2-4.27-1.2-6.79v-8.27c0-2.47,0.4-4.69,1.2-6.68
		c0.8-1.98,1.95-3.69,3.45-5.12c1.5-1.43,3.29-2.53,5.37-3.3C365.63,83.44,367.95,83.06,370.51,83.06z"/>
	<path class="st0" d="M406.02,122.98c-1.07,0-2.14,0-3.23,0s-2.17,0-3.23,0s-2.13,0-3.19,0c-0.14,0-0.27-0.01-0.36-0.04
		s-0.18-0.07-0.25-0.15c-0.07-0.07-0.12-0.16-0.14-0.25c-0.03-0.1-0.04-0.22-0.04-0.36c0-1.79,0-3.69,0-5.7s0-4.08,0-6.21
		c0-2.13,0-4.27,0-6.42s0-4.31,0-6.46s0-4.27,0-6.35c0-1.35,0-2.64,0-3.85c0-1.21,0-2.3,0-3.27c1.21,0,2.36,0,3.45,0
		c1.09,0,2.15,0,3.2,0c1.04,0,2.04,0,3.01,0c0.19,0,0.34,0.04,0.44,0.11c0.1,0.07,0.18,0.16,0.25,0.25c0.07,0.1,0.11,0.24,0.11,0.44
		c0,2.23,0,4.57,0,7.04s0,4.98,0,7.55c0,2.56,0,5.19,0,7.88s0,5.35,0,7.98C406.02,117.81,406.02,120.41,406.02,122.98z M404.64,90.9
		h2.9c0.58-1.79,1.26-3.25,2.03-4.39c0.77-1.14,1.73-1.97,2.87-2.5c1.14-0.53,2.43-0.8,3.88-0.8c0.77,0,1.42,0.07,1.92,0.22
		c0.51,0.15,0.86,0.29,1.05,0.44c0.19,0.15,0.31,0.28,0.36,0.4c0.05,0.12,0.07,0.3,0.07,0.54c0,0.77,0,1.54,0,2.29
		c0,0.75,0,1.49,0,2.21s0,1.46,0,2.21c0,0.75,0,1.51,0,2.29h-1.38c-0.48-0.14-1.02-0.26-1.6-0.36c-0.58-0.1-1.23-0.15-1.96-0.15
		c-1.5,0-2.82,0.29-3.96,0.87s-2.19,1.39-3.16,2.43c-0.97,1.04-1.99,2.26-3.05,3.67V90.9z"/>
	<path class="st0" d="M434.15,111.95c0,1.02,0.28,1.78,0.84,2.29c0.55,0.51,1.41,0.76,2.58,0.76c1.31,0,2.59-0.15,3.85-0.44
		c1.26-0.29,2.5-0.77,3.74-1.45c1.23-0.68,2.48-1.55,3.74-2.61v6.24h-2.18c-0.63,1.45-1.51,2.7-2.65,3.74
		c-1.14,1.04-2.46,1.84-3.96,2.4c-1.5,0.56-3.15,0.83-4.94,0.83c-2.23,0-4.15-0.44-5.77-1.31s-2.87-2.09-3.74-3.67
		c-0.87-1.57-1.31-3.4-1.31-5.48v-2.54c0-1.6,0.27-3.02,0.8-4.28c0.53-1.26,1.29-2.35,2.29-3.27c0.99-0.92,2.19-1.63,3.59-2.14
		c1.4-0.51,2.98-0.76,4.72-0.76c1.69,0,3.35,0,4.97,0c1.62,0,3.17,0,4.64,0s2.87,0,4.17,0c0.44,0,0.76,0.39,0.98,1.16
		c0.22,0.77,0.35,1.63,0.4,2.58c0.05,0.94,0.07,1.73,0.07,2.36c-1.55,0-3.05,0-4.5,0s-2.92,0-4.39,0c-1.48,0-2.99,0-4.54,0
		c-0.58,0-1.08,0.07-1.49,0.22c-0.41,0.15-0.76,0.36-1.05,0.65c-0.24,0.29-0.45,0.62-0.62,0.98c-0.17,0.36-0.25,0.76-0.25,1.2
		V111.95z M457.38,98.23c0,1.21,0,2.38,0,3.52c0,1.14,0,2.3,0,3.48c0,1.19,0,2.37,0,3.56c0,1.19,0,2.33,0,3.45
		c0,0.39,0.04,0.73,0.11,1.02c0.07,0.29,0.21,0.53,0.4,0.73c0.14,0.15,0.35,0.25,0.62,0.33c0.27,0.07,0.57,0.11,0.91,0.11
		c0.15,0,0.28,0,0.4,0c0.12,0,0.25,0,0.4,0h1.38c0,1.31,0,2.6,0,3.88c0,1.28,0,2.58,0,3.88c0,0.24-0.07,0.44-0.22,0.58
		c-0.15,0.15-0.34,0.22-0.58,0.22s-0.83,0-1.78,0s-1.78,0-2.5,0c-1.36,0-2.57-0.22-3.63-0.65c-1.07-0.44-2.01-1.05-2.83-1.85
		c-0.82-0.8-1.45-1.75-1.89-2.87s-0.65-2.37-0.65-3.77c0-1.5,0-3.02,0-4.57c0-1.55,0-3.07,0-4.57c0-0.82,0-1.61,0-2.36
		c0-0.75,0-1.51,0-2.29c0-0.77,0-1.55,0-2.32c0-1.4-0.24-2.5-0.72-3.3c-0.48-0.8-1.27-1.37-2.36-1.71s-2.55-0.51-4.39-0.51
		c-1.36,0-2.68,0.07-3.96,0.22c-1.28,0.15-2.54,0.34-3.77,0.58c-1.23,0.24-2.48,0.58-3.74,1.02h-1.38c0-1.31,0-2.61,0-3.92
		s0-2.59,0-3.85c0-0.19,0.02-0.34,0.07-0.44c0.05-0.1,0.1-0.17,0.14-0.22c0.29-0.29,1.1-0.63,2.43-1.02
		c1.33-0.39,2.91-0.71,4.75-0.98c1.84-0.27,3.65-0.4,5.45-0.4c3.05,0,5.66,0.28,7.84,0.83c2.18,0.56,3.97,1.44,5.37,2.65
		c1.4,1.21,2.44,2.77,3.12,4.68C457.04,93.28,457.38,95.57,457.38,98.23z"/>
</g>
<g>
	
		<ellipse transform="matrix(0.6154 -0.7882 0.7882 0.6154 -24.4519 158.545)" class="st0" cx="150.24" cy="104.33" rx="8.43" ry="8.43"/>
	
		<ellipse transform="matrix(0.7071 -0.7071 0.7071 0.7071 -53.8885 78.5604)" class="st0" cx="67.89" cy="104.33" rx="8.43" ry="8.43"/>
	<path class="st0" d="M147.52,73.45L147.52,73.45c-11.17-2.28-24.36-3.6-38.49-3.6c-14.13,0-27.31,1.32-38.49,3.6l0,0
		c0-28.62-34.46-29.35-34.46-29.35v73.62c0,21.08,32.66,38.17,72.94,38.17c40.29,0,72.94-17.09,72.94-38.17c0,0,0,0,0,0V93.79
		c0,0,0,0,0,0c0,0,0,0,0,0V44.11C181.98,44.11,147.52,44.83,147.52,73.45z M67.89,118.47c-7.81,0-14.14-6.33-14.14-14.14
		c0-7.81,6.33-14.14,14.14-14.14c7.81,0,14.14,6.33,14.14,14.14C82.03,112.14,75.7,118.47,67.89,118.47z M89.78,145.45l-4.94-13.12
		c1.82,1.07,4.93,1.99,8.88,2.66L89.78,145.45z M128.29,145.45l-3.94-10.46c3.95-0.67,7.06-1.59,8.88-2.66L128.29,145.45z
		 M150.24,118.47c-7.81,0-14.14-6.33-14.14-14.14c0-7.81,6.33-14.14,14.14-14.14c7.81,0,14.14,6.33,14.14,14.14
		C164.38,112.14,158.05,118.47,150.24,118.47z"/>
</g>
</svg>
