<?xml version="1.0" encoding="utf-8"?>
<!-- Generator: Adobe Illustrator 24.0.1, SVG Export Plug-In . SVG Version: 6.00 Build 0)  -->
<svg version="1.1" id="Layer_1" xmlns="http://www.w3.org/2000/svg" xmlns:xlink="http://www.w3.org/1999/xlink" x="0px" y="0px"
	 viewBox="0 0 274.27 56.14" style="enable-background:new 0 0 274.27 56.14;" xml:space="preserve">
<style type="text/css">
	.st0{fill:#A46AFF;}
	.st1{fill:#FFFFFF;}
</style>
<g>
	<path d="M93.96,48.56c-0.07,0-0.14-0.02-0.21-0.06c-0.07-0.04-0.13-0.09-0.19-0.15c-0.05-0.06-0.1-0.13-0.13-0.2
		c-0.04-0.08-0.05-0.15-0.05-0.23c0-2.99,0-5.99,0-9.02c0-3.03,0-6.03,0-9.02c0-2.99,0-5.92,0-8.81c0-2.89,0-5.69,0-8.41
		c0-0.81,0-1.62,0-2.41c0-0.79,0-1.6,0-2.41c1.2,0,2.38,0,3.54,0c1.16,0,2.33,0,3.49,0c0.11,0,0.2,0.03,0.29,0.09
		c0.09,0.06,0.16,0.14,0.21,0.23c0.05,0.1,0.08,0.2,0.08,0.32c0,2.72,0,5.45,0,8.2c0,2.75,0,5.52,0,8.29c0,2.77,0,5.54,0,8.29
		c0,2.75,0,5.49,0,8.2h9.2c0.92,0,1.7,0.13,2.35,0.38c0.65,0.25,1.19,0.67,1.61,1.25c0.42,0.58,0.77,1.32,1.03,2.21
		c0.26,0.89,0.5,1.98,0.71,3.26H93.96z M109.19,36.99c0.7,0,1.39,0,2.06,0c0.67,0,1.33,0,1.98,0c0.65,0,1.35,0,2.09,0
		c0.11,0,0.2,0.03,0.29,0.09c0.09,0.06,0.16,0.14,0.21,0.23c0.05,0.1,0.08,0.2,0.08,0.32c0,0.74,0,1.57,0,2.5s0,1.91,0,2.94
		c0,1.03,0,2.02,0,2.97c0,0.95,0,1.79,0,2.53c-1.73-0.15-3.08-0.5-4.07-1.05c-0.99-0.54-1.67-1.26-2.06-2.15
		c-0.39-0.89-0.58-1.92-0.58-3.08c0-0.54,0-1.12,0-1.75c0-0.62,0-1.25,0-1.89S109.19,37.45,109.19,36.99z"/>
	<path d="M127.78,39.72c0,0.81,0.2,1.43,0.61,1.83c0.4,0.41,1.03,0.61,1.88,0.61c0.95,0,1.89-0.12,2.8-0.35
		c0.92-0.23,1.82-0.62,2.72-1.16c0.9-0.54,1.81-1.24,2.72-2.09v5h-1.59c-0.46,1.16-1.1,2.16-1.93,3c-0.83,0.83-1.79,1.47-2.88,1.92
		c-1.09,0.45-2.29,0.67-3.6,0.67c-1.62,0-3.02-0.35-4.2-1.05c-1.18-0.7-2.09-1.68-2.72-2.94c-0.63-1.26-0.95-2.72-0.95-4.39v-2.04
		c0-1.28,0.19-2.42,0.58-3.43c0.39-1.01,0.94-1.88,1.67-2.62c0.72-0.74,1.59-1.31,2.62-1.72c1.02-0.41,2.17-0.61,3.44-0.61
		c1.23,0,2.44,0,3.62,0c1.18,0,2.31,0,3.38,0c1.07,0,2.09,0,3.04,0c0.32,0,0.56,0.31,0.71,0.93c0.16,0.62,0.26,1.31,0.29,2.07
		c0.03,0.76,0.05,1.39,0.05,1.89c-1.13,0-2.22,0-3.28,0s-2.12,0-3.2,0c-1.08,0-2.18,0-3.3,0c-0.42,0-0.78,0.06-1.08,0.17
		c-0.3,0.12-0.56,0.29-0.77,0.52c-0.18,0.23-0.33,0.49-0.45,0.79c-0.12,0.29-0.19,0.61-0.19,0.96V39.72z M144.7,28.72
		c0,0.97,0,1.91,0,2.82c0,0.91,0,1.84,0,2.79c0,0.95,0,1.9,0,2.85c0,0.95,0,1.87,0,2.76c0,0.31,0.03,0.58,0.08,0.81
		c0.05,0.23,0.15,0.43,0.29,0.58c0.11,0.12,0.26,0.2,0.45,0.26c0.19,0.06,0.41,0.09,0.66,0.09c0.11,0,0.2,0,0.29,0
		c0.09,0,0.19,0,0.29,0h1c0,1.05,0,2.09,0,3.11c0,1.03,0,2.07,0,3.11c0,0.19-0.05,0.35-0.16,0.47c-0.11,0.12-0.25,0.17-0.42,0.17
		c-0.18,0-0.61,0-1.3,0c-0.69,0-1.3,0-1.82,0c-0.99,0-1.87-0.17-2.64-0.52c-0.78-0.35-1.46-0.84-2.06-1.48
		c-0.6-0.64-1.06-1.41-1.37-2.3c-0.32-0.89-0.48-1.9-0.48-3.03c0-1.2,0-2.42,0-3.67c0-1.24,0-2.46,0-3.67c0-0.66,0-1.29,0-1.89
		c0-0.6,0-1.21,0-1.83c0-0.62,0-1.24,0-1.86c0-1.12-0.18-2.01-0.53-2.65c-0.35-0.64-0.93-1.1-1.72-1.37
		c-0.79-0.27-1.86-0.41-3.2-0.41c-0.99,0-1.95,0.06-2.88,0.17c-0.93,0.12-1.85,0.27-2.75,0.47c-0.9,0.19-1.81,0.47-2.72,0.81h-1
		c0-1.05,0-2.09,0-3.14c0-1.05,0-2.07,0-3.08c0-0.15,0.02-0.27,0.05-0.35c0.03-0.08,0.07-0.14,0.11-0.17
		c0.21-0.23,0.8-0.5,1.77-0.81c0.97-0.31,2.12-0.57,3.46-0.79c1.34-0.21,2.66-0.32,3.97-0.32c2.22,0,4.12,0.22,5.71,0.67
		c1.59,0.45,2.89,1.15,3.91,2.12c1.02,0.97,1.78,2.22,2.27,3.75C144.45,24.76,144.7,26.59,144.7,28.72z"/>
	<path d="M167.91,7.84h22.73c0.14,0,0.25,0.03,0.32,0.09c0.07,0.06,0.13,0.13,0.19,0.2c0.05,0.08,0.08,0.19,0.08,0.35
		c0,0.81,0,1.56,0,2.24c0,0.68,0,1.35,0,2.01c0,0.66,0,1.4,0,2.21h-22.73c-0.11,0-0.2-0.03-0.29-0.09
		c-0.09-0.06-0.16-0.14-0.21-0.23c-0.05-0.1-0.08-0.2-0.08-0.32c0-1.2,0-2.29,0-3.26C167.91,10.07,167.91,9,167.91,7.84z
		 M178.06,48.56c-1.16,0-2.33,0-3.49,0c-1.16,0-2.34,0-3.54,0c-0.11,0-0.2-0.03-0.29-0.09c-0.09-0.06-0.16-0.13-0.21-0.2
		c-0.05-0.08-0.08-0.19-0.08-0.35c0-3.14,0-6.19,0-9.13c0-2.95,0-5.88,0-8.79s0-5.85,0-8.81s0-5.98,0-9.05h8.2l-0.58,1.57
		c0,1.05,0,2.09,0,3.14s0,2.08,0,3.08c0,2.56,0,5.09,0,7.59c0,2.5,0,5.01,0,7.53c0,2.52,0,5.12,0,7.8c0,1.01,0,2,0,2.97
		C178.06,46.8,178.06,47.71,178.06,48.56z M174.73,26.11h14.17c0.18,0,0.32,0.06,0.42,0.17c0.11,0.12,0.16,0.27,0.16,0.47
		c0,0.81,0,1.59,0,2.33c0,0.74,0,1.44,0,2.09c0,0.66,0,1.36,0,2.09h-14.75V26.11z"/>
	<path d="M207.93,16.56c2.4,0,4.49,0.54,6.27,1.63c1.78,1.09,3.16,2.6,4.15,4.54c0.99,1.94,1.48,4.21,1.48,6.81v4.83
		c0,0.12-0.02,0.22-0.05,0.32c-0.04,0.1-0.1,0.17-0.19,0.2c-0.09,0.04-0.19,0.06-0.29,0.06h-12.16c-0.6,0-1.21,0-1.82,0
		c-0.62,0-1.23,0-1.82,0h-2.17l-0.16-4.89h11.74c0-0.15,0-0.29,0-0.41c0-0.12,0-0.25,0-0.41c0-1.12-0.11-2.08-0.32-2.88
		c-0.21-0.79-0.55-1.43-1-1.89c-0.39-0.47-0.88-0.79-1.48-0.99c-0.6-0.19-1.32-0.29-2.17-0.29c-1.76,0-3.08,0.48-3.94,1.43
		c-0.86,0.95-1.3,2.49-1.3,4.63v7.1c0,0.93,0.11,1.76,0.34,2.47c0.23,0.72,0.56,1.33,0.98,1.83c0.56,0.62,1.31,1.07,2.25,1.34
		c0.93,0.27,2.02,0.41,3.25,0.41c1.27,0,2.4-0.07,3.38-0.2c0.99-0.14,1.9-0.33,2.75-0.58c0.85-0.25,1.67-0.53,2.48-0.84h1
		c0,0.97,0,1.95,0,2.94c0,0.99,0,1.99,0,3c0,0.08-0.02,0.16-0.05,0.23c-0.04,0.08-0.09,0.16-0.16,0.23
		c-0.28,0.31-0.91,0.62-1.88,0.93c-0.97,0.31-2.13,0.58-3.49,0.81c-1.36,0.23-2.74,0.35-4.15,0.35c-2.29,0-4.31-0.3-6.05-0.9
		c-1.74-0.6-3.19-1.46-4.34-2.59c-1.15-1.12-2.01-2.49-2.59-4.1c-0.58-1.61-0.87-3.42-0.87-5.44V29.6c0-1.98,0.29-3.76,0.87-5.35
		c0.58-1.59,1.42-2.96,2.51-4.1c1.09-1.14,2.4-2.03,3.91-2.65C204.37,16.88,206.07,16.56,207.93,16.56z"/>
	<path d="M233.79,48.56c-0.78,0-1.56,0-2.35,0c-0.79,0-1.58,0-2.35,0c-0.78,0-1.55,0-2.33,0c-0.11,0-0.19-0.01-0.26-0.03
		c-0.07-0.02-0.13-0.06-0.19-0.12c-0.05-0.06-0.09-0.13-0.11-0.2c-0.02-0.08-0.03-0.17-0.03-0.29c0-1.43,0-2.96,0-4.57
		c0-1.61,0-3.27,0-4.97c0-1.71,0-3.42,0-5.15c0-1.73,0-3.45,0-5.18c0-1.73,0-3.42,0-5.09c0-1.09,0-2.11,0-3.08c0-0.97,0-1.84,0-2.62
		c0.88,0,1.72,0,2.51,0c0.79,0,1.57,0,2.33,0c0.76,0,1.49,0,2.19,0c0.14,0,0.25,0.03,0.32,0.09c0.07,0.06,0.13,0.13,0.19,0.2
		c0.05,0.08,0.08,0.19,0.08,0.35c0,1.78,0,3.67,0,5.64c0,1.98,0,4,0,6.05c0,2.06,0,4.16,0,6.31c0,2.15,0,4.29,0,6.4
		C233.79,44.42,233.79,46.51,233.79,48.56z M232.79,22.85h2.11c0.42-1.43,0.92-2.61,1.48-3.52c0.56-0.91,1.26-1.58,2.09-2.01
		c0.83-0.43,1.77-0.64,2.83-0.64c0.56,0,1.03,0.06,1.4,0.17c0.37,0.12,0.63,0.23,0.77,0.35c0.14,0.12,0.23,0.22,0.26,0.32
		c0.03,0.1,0.05,0.24,0.05,0.44c0,0.62,0,1.23,0,1.83c0,0.6,0,1.19,0,1.77c0,0.58,0,1.17,0,1.77c0,0.6,0,1.21,0,1.83h-1
		c-0.35-0.12-0.74-0.21-1.16-0.29c-0.42-0.08-0.9-0.12-1.43-0.12c-1.09,0-2.05,0.23-2.88,0.7c-0.83,0.47-1.6,1.12-2.3,1.95
		c-0.71,0.83-1.45,1.81-2.22,2.94V22.85z"/>
	<path d="M254.29,39.72c0,0.81,0.2,1.43,0.61,1.83c0.4,0.41,1.03,0.61,1.88,0.61c0.95,0,1.89-0.12,2.8-0.35
		c0.92-0.23,1.82-0.62,2.72-1.16c0.9-0.54,1.81-1.24,2.72-2.09v5h-1.59c-0.46,1.16-1.1,2.16-1.93,3c-0.83,0.83-1.79,1.47-2.88,1.92
		c-1.09,0.45-2.29,0.67-3.6,0.67c-1.62,0-3.02-0.35-4.2-1.05c-1.18-0.7-2.09-1.68-2.72-2.94c-0.63-1.26-0.95-2.72-0.95-4.39v-2.04
		c0-1.28,0.19-2.42,0.58-3.43c0.39-1.01,0.94-1.88,1.67-2.62c0.72-0.74,1.59-1.31,2.62-1.72c1.02-0.41,2.17-0.61,3.44-0.61
		c1.23,0,2.44,0,3.62,0c1.18,0,2.31,0,3.38,0c1.07,0,2.09,0,3.04,0c0.32,0,0.56,0.31,0.71,0.93c0.16,0.62,0.26,1.31,0.29,2.07
		c0.03,0.76,0.05,1.39,0.05,1.89c-1.13,0-2.22,0-3.28,0c-1.06,0-2.12,0-3.2,0c-1.08,0-2.18,0-3.3,0c-0.42,0-0.78,0.06-1.08,0.17
		c-0.3,0.12-0.56,0.29-0.77,0.52c-0.18,0.23-0.33,0.49-0.45,0.79c-0.12,0.29-0.19,0.61-0.19,0.96V39.72z M271.21,28.72
		c0,0.97,0,1.91,0,2.82c0,0.91,0,1.84,0,2.79c0,0.95,0,1.9,0,2.85c0,0.95,0,1.87,0,2.76c0,0.31,0.03,0.58,0.08,0.81
		c0.05,0.23,0.15,0.43,0.29,0.58c0.11,0.12,0.26,0.2,0.45,0.26c0.19,0.06,0.41,0.09,0.66,0.09c0.11,0,0.2,0,0.29,0
		c0.09,0,0.19,0,0.29,0h1c0,1.05,0,2.09,0,3.11c0,1.03,0,2.07,0,3.11c0,0.19-0.05,0.35-0.16,0.47c-0.11,0.12-0.25,0.17-0.42,0.17
		c-0.18,0-0.61,0-1.3,0c-0.69,0-1.3,0-1.82,0c-0.99,0-1.87-0.17-2.64-0.52c-0.78-0.35-1.46-0.84-2.06-1.48
		c-0.6-0.64-1.06-1.41-1.37-2.3c-0.32-0.89-0.48-1.9-0.48-3.03c0-1.2,0-2.42,0-3.67c0-1.24,0-2.46,0-3.67c0-0.66,0-1.29,0-1.89
		c0-0.6,0-1.21,0-1.83c0-0.62,0-1.24,0-1.86c0-1.12-0.18-2.01-0.53-2.65c-0.35-0.64-0.93-1.1-1.72-1.37
		c-0.79-0.27-1.86-0.41-3.2-0.41c-0.99,0-1.95,0.06-2.88,0.17c-0.93,0.12-1.85,0.27-2.75,0.47c-0.9,0.19-1.81,0.47-2.72,0.81h-1
		c0-1.05,0-2.09,0-3.14c0-1.05,0-2.07,0-3.08c0-0.15,0.02-0.27,0.05-0.35c0.03-0.08,0.07-0.14,0.11-0.17
		c0.21-0.23,0.8-0.5,1.77-0.81c0.97-0.31,2.12-0.57,3.46-0.79c1.34-0.21,2.66-0.32,3.97-0.32c2.22,0,4.12,0.22,5.71,0.67
		c1.59,0.45,2.89,1.15,3.91,2.12c1.02,0.97,1.78,2.22,2.27,3.75C270.96,24.76,271.21,26.59,271.21,28.72z"/>
</g>
<g>
	<path class="st0" d="M55.96,14.74L55.96,14.74c-5.61-1.15-12.23-1.81-19.33-1.81c-7.09,0-13.72,0.66-19.33,1.81l0,0
		C17.3,0.37,0,0,0,0v36.97c0,10.59,16.4,19.17,36.63,19.17c20.23,0,36.63-8.58,36.63-19.17c0,0,0,0,0,0V24.95c0,0,0,0,0,0
		c0,0,0,0,0,0V0C73.26,0,55.96,0.37,55.96,14.74z"/>
	<circle class="st1" cx="15.97" cy="30.24" r="7.1"/>
	<ellipse transform="matrix(0.3827 -0.9239 0.9239 0.3827 7.4466 71.6311)" class="st1" cx="57.33" cy="30.24" rx="7.1" ry="7.1"/>
	<circle class="st0" cx="57.33" cy="30.24" r="4.23"/>
	
		<ellipse transform="matrix(0.7071 -0.7071 0.7071 0.7071 -16.7086 20.1483)" class="st0" cx="15.97" cy="30.24" rx="4.23" ry="4.23"/>
	<path class="st1" d="M26.96,50.9l-2.48-6.59c0.92,0.54,2.48,1,4.46,1.34L26.96,50.9z"/>
	<path class="st1" d="M46.3,50.9l-1.98-5.25c1.98-0.34,3.54-0.8,4.46-1.34L46.3,50.9z"/>
</g>
</svg>
