<?xml version="1.0" encoding="utf-8"?>
<!-- Generator: Adobe Illustrator 24.0.1, SVG Export Plug-In . SVG Version: 6.00 Build 0)  -->
<svg version="1.0" id="Layer_1" xmlns="http://www.w3.org/2000/svg" xmlns:xlink="http://www.w3.org/1999/xlink" x="0px" y="0px"
	 viewBox="0 0 848 79" enable-background="new 0 0 848 79" xml:space="preserve">
<path fill-rule="evenodd" clip-rule="evenodd" fill="#6441A4" d="M307.3,33v19.9l-11,7.6h-6.8v-3.4l-5.1,3.4h-5.9v-3.4l-3.8,3.4h-11
	l-3.4-3.4l-0.8,3.4l-9.7,0l-3.8-3.4l-0.4,3.4l-11,0l-0.4-3.4l-3,3.4l-17,0l-3.4-1.7v1.7h-9.3l-10.2-6.4l-6.4-6.4v-28h13.1l6.4,6.4
	h28.8v-6.4h23.7v6.4h5.9v3.4l3.4-3.4h7.2l6.4-6.4h13.6v6.4h7.2L307.3,33z M201.3,29.2h-5.9v-6.4h-7.6v23.7l4.7,5.1h8.9v-8.1h-5.9
	v-6.8h5.9V29.2z M233.1,29.2h-7.6v14.4h-3V29.2h-7.2v14.4h-3V29.2h-8.1v22.5H228l5.1-5.1V29.2z M243.3,29.2h-7.2v22.5h7.2V29.2z
	 M243.3,22.8h-7.2v3.4h7.2V22.8z M259.8,29.2h-5.9v-6.4h-7.6v23.7l4.7,5.1h8.9v-8.1h-5.9v-6.8h5.9L259.8,29.2z M279.3,29.2h-11.9
	l-4.7,4.7v12.7l5.1,5.1h11.4v-8.1h-8.5v-6.8h8.5L279.3,29.2z M304.3,33.8l-5.1-4.7h-8.9v-6.4h-8.1v28.8h8.1V36.8h5.9v14.8h8.1
	L304.3,33.8z"/>
<g>
	<path fill="#16375F" d="M402.7,33.1c2-2,3.3-2.1,3.3-2.1c0.5,0,0.9,0.1,1.4,0.3c1,0.3,1,0.9,1,0.9v14.7c0.1,4.1-0.9,5.7-2.1,6.8
		c-0.4,0.3-0.8,0.6-1.3,0.6c-0.1,0-0.3-0.1-0.3-0.2c0,0,0,0,0-0.1c0-0.3,0.1-0.6,0.2-0.8c0.6-1.6,0.6-4.3,0.6-4.3l0.1-15.8
		c0,0,0-0.3-0.2-0.2c-2.4,2.1-2.7,5-2.8,6.4c0,2.1,0.9,3.2,0.9,3.2c0.1,0.1,0.2,0.3,0.2,0.5c0,0.2-0.1,0.4-0.3,0.4c0,0,0,0-0.1,0
		c-0.9-0.1-2.3-1.1-2.9-2.3c-0.3-0.6-0.4-1.2-0.4-1.9C400.1,36.9,401.1,34.7,402.7,33.1L402.7,33.1z M507.7,47.1
		c0,4.7-2.9,4.6-2.9,4.6c-2.7,0.1-3.4-2.8-3.6-5.7c-0.1-2.2,0-4.6,0-4.6s0-0.1-0.1,0c-0.9,1.6-1.5,4.1-1.8,6.1
		c-0.1,0.9-0.2,1.7-0.2,2.6c0,0.2,0,0.3-0.2,0.4c-1.5,0.7-2.4-0.3-2.8-1.4c-0.4-1-0.7-7.1-0.7-7.5c0-0.3-0.3-0.1-0.3-0.1
		c-2,3.4-2.1,8.4-2.1,9.4s-1.7,0.7-1.7,0.7c-1.5-0.1-1.4-0.8-1.4-0.8l-0.1-1.2c-0.5,0.9-1.5,2.2-2.9,2.1c-2.2-0.1-2.6-2.4-2.7-2.8
		c0,0-1.1,2.9-4.1,2.8c-2.1,0-2.9-2.2-2.9-2.2s-0.8,2.2-2.9,2.2c-2-0.1-3.7-2.4-3.6-5.5c0-1.5,0.2-3.1,0.6-4.6c0,0,0.2-0.3-0.1-0.3
		s-2,0-2,0s-1,4-5.2,8.9l0,3.3c0,3.2-0.4,7.6-4.8,8c-3.8-0.3-3.6-3.2-3.6-3.2c-0.1-0.9,0.5-2.4,2.7-4.6l3.2-2.9l-0.1-1.4
		c-1.5,2.4-3.7,2.3-3.7,2.3s-1.7,0.3-3.2-2.2c-0.4,0.9-1.4,2.4-3,2.2c-2.2-0.2-2.7-2.5-2.7-2.8c0,0-1.1,2.9-4.2,2.8
		c-2.1,0-2.9-2.2-2.9-2.2c-0.2-0.5-0.4-1-0.5-1.5l-0.1,0.3c-0.5,1.2-1.6,3.3-3.4,3.3c-3.3,0-3.4-5.1-3.4-5.1c-1,2.3-2.8,5.1-6.3,5.1
		c-3.4,0-3.9-1.3-3.9-1.4c0-0.3,0.1-0.7,0.3-0.9c0.4-0.6,0.7-0.8,1-0.8c0.3,0.1,0.6,0.2,0.8,0.4c0.4,0.4,1,0.7,1.6,0.7
		c1.1,0,1.3-0.9,1.4-1.8s-0.6-1.8-1.4-2.6l-1.5-1.4l-2.9,4.7c-1.7,2.7-3.3,3.2-4,3.1c-0.9-0.1-1.7-1-1.8-3.7l0.2-7.4
		c0-0.2-0.2-0.1-0.2-0.1c-3.3,3.5-4.3,10.8-4.3,10.9c-0.1,0.2-0.4,0.3-0.6,0.3c-0.3,0,0.1,0-1.1-0.1s-1.1-2.3-1.1-2.3l0.1-10.8
		c0-0.4,0.4-0.5,1.5-0.2c1.1,0.3,1.1,0.6,1.1,0.6l0,6.3c2.9-8.6,5.1-7.2,6.4-6.6c1.3,0.7,1.1,1.6,1.1,1.6l-0.2,6.4
		c-0.1,1.7,0.2,2.3,0.6,2.4c0.9,0.2,4.2-6.1,4.2-6.1c-1.5-1.6-0.7-3.5,0.5-4.4c0.5-0.4,1.1-0.6,1.7-0.6c0,0,1.5-0.1,1.4,1.2
		c0,1.4-1.5,3-1.5,3c2.9,2.1,4.3,3.2,4.5,4.8c0.1,0.4,0,0.9-0.1,1.3c2.1-1.8,2.3-3.9,2.3-3.9l0-6.8l-3.1,0c0,0-0.2,0-0.3-0.6
		c0-0.6,0.2-1.1,0.6-1.5l3,0l0.1-3.6c0.1-0.7,0.6-0.8,1.9-0.5C438,31.7,438,32,438,32l-0.1,3.6l3.7,0.2c0.4,0,0.6,0.1,0.5,0.9
		c0,0.4-0.2,0.7-0.5,0.9l-3.7,0.1l-0.3,7.9c0,1.2,0.1,4.1,1.2,4.1c1.6,0.1,2.5-3.5,2.5-3.5v0c0-0.7,0-1.3,0.1-2
		c0.3-2.9,1.6-6.2,4.5-6.2c1.2,0,2.2,0.7,2.7,1.7l0-0.6c0,0-0.1-0.8,1.2-0.6c1.2,0.2,1.7,0.7,1.6,1.1l-0.1,8
		c0.2,1.7,0.5,2.7,1.3,2.7c0.8-0.1,1.3-1.1,1.6-2c-1.1-9.1,3.9-10.2,3.9-10.2s2.2-0.1,3.2,1.7l0-0.6c0,0-0.1-0.8,1.1-0.6
		c0.3,0.1,0.7,0.1,1,0.3c0.5,0.2,0.7,0.3,0.7,0.8l-0.1,9c0,0,2.6-3.5,3.2-6.9c-0.5-0.4-0.8-1-0.9-1.6c0.1-1,0.6-2.1,2-2.1
		s1.5,1.3,1.3,2.1c0,0,1.2-0.1,2.2-0.4c1-0.3,2.4-0.4,2.5,1.2c0,0.4,0,0.7-0.2,1c0,0-0.8,3.6-0.7,5c0.1,1.5,0.5,3.6,1.7,3.4
		s1.5-1.9,1.5-1.9c-0.3-1.3-0.4-2.7-0.2-4c0.3-2.9,1.6-6.2,4.5-6.2c1.2,0,2.2,0.7,2.7,1.7l0-0.6c0,0-0.1-0.8,1.2-0.6
		s1.7,0.7,1.6,1.1l-0.1,7.9c0.2,1.7,0.5,2.7,1.3,2.6c0.9-0.1,1.5-1.4,2-2.6V47l0-8.4c0-0.3,0.2-0.5,0.5-0.5l1,0.2
		c1.4,0.2,1.2,0.7,1.2,0.7v4.7c1-3.2,1.6-4.4,2-5.3c0.4-0.7,1.7-0.2,1.7-0.2s1.4,0.4,1.5,1.7c0,2.2,0.3,5.8,0.3,5.8s0.1,0.1,0.1,0
		c0,0,0,0,0-0.1c0.4-2.4,1.1-4.8,2.1-7c0.5-1,2-0.3,2-0.3c1.8,0.6,1.6,1.7,1.6,1.7c-0.5,9.2,0.6,9.8,1.3,9.8c0.7,0.1,1-0.8,1.2-1.2
		c0.1-0.4,0.3-1.3,0.4-1.7c0.1-0.2,0.2-0.4,0.5-0.4C507.6,46.7,507.7,46.9,507.7,47.1L507.7,47.1z M446.6,40c-0.6,0-2.1,0.4-2.4,4.6
		s0.8,5.2,1.8,5.3c0.9,0.1,2.6-1.4,2.7-5.8C448.8,39.8,446.6,40,446.6,40L446.6,40z M459.6,40c-0.6,0-2.3,0.6-2.6,4.6
		c-0.3,4.2,0.9,5.3,1.8,5.4c0.9,0.1,2.6-1.4,2.7-5.9C461.6,39.7,459.6,40.1,459.6,40L459.6,40z M461.8,52.9c-3.7,3.2-4,5.4-4,5.4
		s-0.4,1.9,1.4,2c2.1,0.2,2.5-2.4,2.5-4.6L461.8,52.9L461.8,52.9z M482,40.2c-0.6,0-2.1,0.4-2.4,4.6c-0.3,4.2,0.8,5.2,1.8,5.3
		c0.9,0.1,2.6-1.4,2.7-5.8C484.1,39.9,482,40.2,482,40.2L482,40.2z"/>
	<g transform="matrix(.114556 0 0 .114556 .402435 43.321453)">
		
			<radialGradient id="SVGID_1_" cx="63326.4961" cy="-78754.3359" r="940.5068" gradientTransform="matrix(0.1154 -1.937020e-02 -1.177926e-02 -7.002420e-02 -5159.9766 -4045.3589)" gradientUnits="userSpaceOnUse">
			<stop  offset="0" style="stop-color:#FED576"/>
			<stop  offset="0.263" style="stop-color:#F47133"/>
			<stop  offset="0.609" style="stop-color:#BC3081"/>
			<stop  offset="1" style="stop-color:#4C63D2"/>
		</radialGradient>
		<path fill="url(#SVGID_1_)" d="M3228.6-132.9c-4,0-7.9,0.2-11.8,0.6c-3.9,0.4-7.7,1-11.5,1.8c-3.8,0.8-7.5,1.7-11.1,2.9l-10.7,3.9
			l-10.2,4.9l-9.6,5.8l-9,6.7l-8.3,7.5l-7.5,8.3l-6.7,8.9l-5.8,9.6l-4.9,10.1c-1.5,3.5-2.8,7-3.9,10.7c-1.1,3.6-2.1,7.3-2.9,11.1
			s-1.4,7.6-1.8,11.5c-0.4,3.9-0.6,7.8-0.6,11.8s0.2,7.9,0.6,11.8c0.4,3.9,1,7.7,1.8,11.5c0.8,3.8,1.7,7.5,2.9,11.1
			s2.4,7.2,3.9,10.7l4.9,10.1l5.8,9.6l6.7,8.9l7.5,8.3l8.3,7.5l9,6.7l9.6,5.8l10.2,4.9l10.7,3.9l11.1,2.9c3.8,0.8,7.6,1.4,11.5,1.8
			c3.9,0.4,7.9,0.6,11.8,0.6c4,0,7.9-0.2,11.8-0.6c3.9-0.4,7.7-1,11.5-1.8L3263,94l10.7-3.9l10.2-4.9l9.6-5.8l9-6.7l8.3-7.5l7.5-8.3
			l6.7-8.9l5.8-9.6l4.9-10.1l3.9-10.7c1.1-3.6,2.1-7.3,2.9-11.1l1.8-11.5c0.4-3.9,0.6-7.8,0.6-11.8s-0.2-7.9-0.6-11.8
			c-0.4-3.9-1-7.7-1.8-11.5c-0.8-3.8-1.7-7.5-2.9-11.1l-3.9-10.7l-4.9-10.1l-5.8-9.6l-6.7-8.9l-7.5-8.3l-8.3-7.5l-9-6.7l-9.6-5.8
			l-10.2-4.9l-10.7-3.9l-11.1-2.9l-11.5-1.8C3236.5-132.7,3232.5-132.9,3228.6-132.9L3228.6-132.9z M3228.6-92.9
			c2.6,0,5.2,0.1,7.8,0.4l7.6,1.1l7.3,1.9l7,2.5l6.7,3.2l6.3,3.8l5.9,4.4l5.4,4.9l4.9,5.4l4.4,5.8l3.8,6.3l3.2,6.7
			c1,2.3,1.8,4.6,2.5,7c0.7,2.4,1.4,4.8,1.9,7.3s0.9,5,1.1,7.6l0.4,7.8c0,2.6-0.1,5.2-0.4,7.8c-0.3,2.6-0.6,5.1-1.1,7.6
			s-1.1,4.9-1.9,7.3l-2.5,7l-3.2,6.7l-3.8,6.3l-4.4,5.8l-4.9,5.4l-5.4,4.9l-5.9,4.4l-6.3,3.8l-6.7,3.2l-7,2.5l-7.3,1.9l-7.6,1.1
			c-2.6,0.3-5.2,0.4-7.8,0.4c-2.6,0-5.2-0.1-7.8-0.4l-7.6-1.1c-2.5-0.5-4.9-1.1-7.3-1.9l-7-2.5l-6.7-3.2l-6.3-3.8l-5.9-4.4l-5.4-4.9
			l-4.9-5.4l-4.4-5.8l-3.8-6.3l-3.2-6.7l-2.5-7l-1.9-7.3l-1.1-7.6c-0.3-2.6-0.4-5.2-0.4-7.8c0-2.6,0.1-5.2,0.4-7.8
			c0.3-2.6,0.6-5.1,1.1-7.6c0.5-2.5,1.1-4.9,1.9-7.3l2.5-7l3.2-6.7l3.8-6.3l4.4-5.8l4.9-5.4l5.4-4.9l5.9-4.4l6.3-3.8l6.7-3.2
			c2.3-1,4.6-1.8,7-2.5l7.3-1.9c2.5-0.5,5-0.9,7.6-1.1C3223.3-92.7,3226-92.9,3228.6-92.9L3228.6-92.9z"/>
		
			<radialGradient id="SVGID_2_" cx="63326.4961" cy="-78754.3359" r="940.5068" gradientTransform="matrix(0.1154 -1.937020e-02 -1.177926e-02 -7.002420e-02 -5159.9766 -4045.3589)" gradientUnits="userSpaceOnUse">
			<stop  offset="0" style="stop-color:#FED576"/>
			<stop  offset="0.263" style="stop-color:#F47133"/>
			<stop  offset="0.609" style="stop-color:#BC3081"/>
			<stop  offset="1" style="stop-color:#4C63D2"/>
		</radialGradient>
		<path fill="url(#SVGID_2_)" d="M3349.5-166c-0.9,0-1.8,0-2.8,0.1c-0.9,0.1-1.8,0.2-2.7,0.4c-0.9,0.2-1.8,0.4-2.7,0.7
			c-0.9,0.3-1.7,0.6-2.6,1c-0.8,0.4-1.7,0.8-2.5,1.2c-0.8,0.4-1.6,0.9-2.4,1.5c-0.8,0.5-1.5,1.1-2.2,1.7c-0.7,0.6-1.4,1.2-2,1.9
			c-0.6,0.7-1.3,1.4-1.8,2.1c-0.6,0.7-1.1,1.5-1.6,2.3c-0.5,0.8-1,1.6-1.4,2.4c-0.4,0.8-0.8,1.7-1.1,2.5c-0.3,0.9-0.6,1.7-0.9,2.6
			c-0.2,0.9-0.4,1.8-0.6,2.7c-0.2,0.9-0.3,1.8-0.3,2.8c0,0.7-0.1,1.3-0.1,2c0,0.9,0,1.9,0.1,2.8c0.1,0.9,0.2,1.8,0.4,2.8
			c0.2,0.9,0.4,1.8,0.7,2.7c0.3,0.9,0.6,1.8,0.9,2.6c0.4,0.9,0.8,1.7,1.2,2.5c0.4,0.8,0.9,1.6,1.4,2.4c0.5,0.8,1.1,1.5,1.7,2.2
			c0.6,0.7,1.2,1.4,1.9,2c0.7,0.6,1.4,1.3,2.1,1.8c0.7,0.6,1.5,1.1,2.3,1.6c0.8,0.5,1.6,1,2.4,1.4c0.8,0.4,1.7,0.8,2.5,1.1
			c0.9,0.3,1.7,0.6,2.6,0.9c0.9,0.2,1.8,0.5,2.7,0.6c0.9,0.2,1.8,0.3,2.7,0.3c0.7,0,1.3,0.1,2,0.1c0.9,0,1.8,0,2.8-0.1
			c0.9-0.1,1.8-0.2,2.7-0.4c0.9-0.2,1.8-0.4,2.7-0.7c0.9-0.3,1.7-0.6,2.6-1c0.8-0.4,1.7-0.8,2.5-1.2c0.8-0.4,1.6-0.9,2.4-1.5
			c0.8-0.5,1.5-1.1,2.2-1.7c0.7-0.6,1.4-1.2,2-1.9c0.6-0.7,1.3-1.4,1.8-2.1c0.6-0.7,1.1-1.5,1.6-2.3c0.5-0.8,1-1.6,1.4-2.4
			c0.4-0.8,0.8-1.7,1.1-2.5c0.3-0.9,0.6-1.7,0.9-2.6c0.2-0.9,0.4-1.8,0.6-2.7c0.2-0.9,0.3-1.8,0.3-2.8c0-0.7,0.1-1.3,0.1-2
			c0-0.9,0-1.9-0.1-2.8c-0.1-0.9-0.2-1.8-0.4-2.8c-0.2-0.9-0.4-1.8-0.7-2.7c-0.3-0.9-0.6-1.8-0.9-2.6c-0.4-0.9-0.8-1.7-1.2-2.5
			c-0.4-0.8-0.9-1.6-1.4-2.4c-0.5-0.8-1.1-1.5-1.7-2.2c-0.6-0.7-1.2-1.4-1.9-2c-0.7-0.6-1.4-1.3-2.1-1.8c-0.7-0.6-1.5-1.1-2.3-1.6
			c-0.8-0.5-1.6-1-2.4-1.4c-0.8-0.4-1.7-0.8-2.5-1.1c-0.9-0.3-1.7-0.6-2.6-0.9c-0.9-0.2-1.8-0.5-2.7-0.6c-0.9-0.2-1.8-0.3-2.7-0.3
			C3350.8-165.9,3350.1-166,3349.5-166L3349.5-166z"/>
		
			<radialGradient id="SVGID_3_" cx="63326.4961" cy="-78754.3359" r="940.5068" gradientTransform="matrix(0.1154 -1.937020e-02 -1.177926e-02 -7.002420e-02 -5159.9766 -4045.3589)" gradientUnits="userSpaceOnUse">
			<stop  offset="0" style="stop-color:#FED576"/>
			<stop  offset="0.263" style="stop-color:#F47133"/>
			<stop  offset="0.609" style="stop-color:#BC3081"/>
			<stop  offset="1" style="stop-color:#4C63D2"/>
		</radialGradient>
		<path fill="url(#SVGID_3_)" d="M3206.5-244c-12.6,0-23.9,0-34.1,0.2l-27.2,0.7c-8,0.3-15.2,0.8-21.5,1.4c-3.2,0.3-6.2,0.6-9.1,1
			c-2.7,0.3-5.4,0.7-8.1,1.2c-2.6,0.4-5,0.9-7.3,1.4c-2.3,0.5-4.6,1.1-6.7,1.7c-2.1,0.6-4.2,1.2-6.3,1.9c-2,0.7-4,1.4-6,2.2
			c-3.9,1.5-7.7,3.3-11.7,5.2c-3,1.5-5.8,3-8.5,4.6c-2.7,1.6-5.2,3.3-7.6,5.2c-2.5,1.9-5,3.9-7.3,6.1c-2.4,2.2-4.9,4.7-7.5,7.4
			c-3.3,3.4-6.1,6.6-8.6,9.8c-1.3,1.6-2.4,3.1-3.5,4.7c-1.1,1.5-2.1,3.1-3.1,4.7c-1,1.6-1.9,3.2-2.8,4.9c-0.9,1.7-1.8,3.4-2.6,5.2
			c-1.7,3.6-3.2,7.4-4.7,11.7c-1.1,3.2-2.2,6.4-3.1,9.6c-0.9,3.3-1.7,6.8-2.5,10.5c-0.7,3.7-1.4,7.8-1.9,12.2
			c-0.6,4.9-1.1,9.8-1.4,14.7c-0.4,5.4-0.7,11.3-1,17.9l-0.7,22l-0.4,26.8l-0.1,32.4l0.3,47.1l0.9,35.7l0.7,13.9l0.9,11.5
			c0.3,3.1,0.6,6.2,1.1,9.3c0.4,2.7,0.8,5.2,1.3,7.2c0.9,4.2,2,8.4,3.3,12.6c1.2,4,2.6,7.9,4.1,11.7c1.5,3.8,3.2,7.4,5,10.9
			s3.8,6.9,5.9,10.1s4.3,6.3,6.7,9.3c2.4,3,4.9,5.8,7.6,8.5c2.7,2.7,5.5,5.3,8.5,7.7c3,2.5,6.2,4.8,9.4,7c3,2,6,3.9,9,5.6
			s6,3.2,9.2,4.6s6.3,2.7,9.7,3.8c3.3,1.1,6.8,2.1,10.5,3c3.7,0.9,7.6,1.7,11.7,2.4c4.1,0.7,8.5,1.3,13.2,1.8
			c4.7,0.5,9.7,0.9,15.1,1.3c5.4,0.3,11.2,0.6,17.4,0.9c9.6,0.3,24.1,0.5,40.8,0.6l54.1-0.1l51.2-0.7l19.5-0.5l12.7-0.7
			c2.7-0.2,5.4-0.5,8-0.8c2.6-0.3,5.1-0.7,7.6-1.1c2.5-0.4,4.9-0.8,7.3-1.3c2.3-0.5,4.7-1,7-1.6c2.3-0.6,4.6-1.2,6.8-1.9
			s4.5-1.5,6.7-2.3c2.2-0.8,4.4-1.7,6.6-2.6c2.2-0.9,4.4-1.9,6.6-3c3.4-1.6,6.1-3,8.5-4.3c2.2-1.2,4.4-2.6,6.5-4.1
			c2-1.5,4.1-3.2,6.4-5.3s5-4.7,8.2-8c2.9-2.9,5.3-5.4,7.4-7.6s3.8-4.3,5.4-6.3c1.5-1.9,2.8-3.8,4.1-5.8c1.2-2,2.4-4,3.5-6.3
			c1.7-3.4,3.3-6.6,4.7-9.6c1.3-2.9,2.6-5.9,3.7-9c1.1-3,2-6.1,2.8-9.2c0.8-3.2,1.5-6.6,2.1-10.2c0.6-3.7,1.1-7.7,1.6-12.2
			c0.4-4.5,0.8-9.4,1.2-15l0.9-18.7l0.8-23.3l0.5-25.9l0.2-27.1l-0.5-53.2l-0.7-23.8l-0.9-20.5l-1.1-16c-0.4-4.4-0.8-7.9-1.3-10.3
			c-0.5-2.6-1.1-5.2-1.7-7.8c-0.6-2.5-1.3-5-2-7.5c-0.7-2.4-1.5-4.8-2.3-7.2c-0.8-2.4-1.7-4.7-2.6-6.9c-0.9-2.3-1.9-4.5-2.9-6.6
			c-1-2.2-2.1-4.3-3.3-6.3s-2.3-4.1-3.6-6s-2.5-3.9-3.9-5.7c-1.3-1.8-2.7-3.6-4.2-5.4c-1.4-1.7-2.9-3.5-4.5-5.1
			c-1.5-1.7-3.1-3.3-4.8-4.8c-1.6-1.6-3.3-3.1-5.1-4.5c-1.8-1.5-3.6-2.9-5.4-4.2c-1.9-1.4-3.8-2.7-5.7-3.9c-2-1.3-4-2.5-6-3.6
			c-2.1-1.2-4.2-2.3-6.3-3.3c-3.6-1.7-6.8-3.3-10.1-4.6c-3.2-1.3-6.4-2.5-9.7-3.6c-3.3-1-6.7-1.9-10.5-2.7s-7.9-1.4-12.6-2
			c-4.7-0.5-9.9-1-15.9-1.4c-6-0.4-12.7-0.7-20.3-0.9l-26-0.6l-33-0.4L3206.5-244L3206.5-244z M3228.4-203.9l60.9,0.3l23,0.4
			c6.3,0.2,11.1,0.4,14,0.6c3.7,0.3,7.2,0.7,10.5,1.2c3.2,0.4,6.4,1,9.6,1.7c3.1,0.6,6,1.4,8.8,2.2c2.8,0.8,5.5,1.7,8,2.8
			c2.6,1,5,2.1,7.4,3.4c2.3,1.2,4.6,2.6,6.8,4c2.2,1.4,4.3,3,6.3,4.7s4,3.5,6,5.4c2,2,3.9,4.1,5.7,6.2c1.7,2.1,3.3,4.4,4.8,6.7
			c1.5,2.3,2.8,4.8,4,7.3c1.2,2.6,2.3,5.3,3.3,8.1c1,2.9,1.8,5.9,2.6,9.2c0.8,3.5,1.5,7,2,10.5c0.6,3.7,1.1,7.7,1.5,12
			c0.4,4.3,0.8,8.8,1.1,13.6c0.2,3.9,0.4,9,0.6,15.1l0.4,20.7l0.3,50.7l-0.4,50.6l-0.4,20.6l-0.6,15c-0.4,7-0.9,12.9-1.4,18.1
			c-0.3,2.6-0.6,4.9-0.9,7.2c-0.3,2.1-0.7,4.2-1.1,6.3c-0.4,1.9-0.8,3.8-1.3,5.7c-0.5,1.8-1,3.6-1.6,5.3c-0.6,1.8-1.3,3.5-2,5.2
			c-0.7,1.8-1.5,3.6-2.4,5.4c-0.7,1.6-1.5,3.1-2.3,4.7c-0.8,1.5-1.7,3-2.6,4.4c-0.9,1.4-1.8,2.8-2.8,4.1c-1,1.3-2,2.6-3.1,3.9
			c-1.1,1.3-2.2,2.5-3.4,3.6c-1.2,1.2-2.4,2.3-3.6,3.4c-1.3,1.1-2.6,2.1-3.9,3.2c-1.3,1-2.7,2-4.2,2.9c-1.4,0.9-2.9,1.8-4.4,2.7
			s-3.1,1.7-4.7,2.4c-1.7,0.8-3.3,1.5-5,2.2c-1.8,0.7-3.5,1.4-5.3,2c-3.6,1.2-7.5,2.3-11.5,3.3c-4.2,1-8.5,1.8-12.7,2.4
			c-1.6,0.2-5.4,0.5-10.8,0.7l-20.6,0.6l-58.5,0.8l-61.2,0.1l-24.1-0.3l-15.6-0.5l-11.5-0.8c-3.6-0.3-6.9-0.6-10-1s-6-0.8-8.7-1.3
			c-2.6-0.4-5.2-1-7.7-1.6c-2.3-0.6-4.6-1.2-6.9-2c-2.2-0.7-4.3-1.5-6.3-2.4s-4-1.8-6-2.9c-2-1.1-3.9-2.2-5.9-3.4
			c-1.5-0.9-2.9-1.9-4.3-2.9s-2.7-2-4-3.1c-1.3-1.1-2.5-2.1-3.7-3.3c-1.2-1.1-2.3-2.3-3.4-3.5c-1.1-1.2-2.1-2.4-3.1-3.7
			c-1-1.3-2-2.6-2.9-3.9c-0.9-1.4-1.8-2.8-2.6-4.2c-0.8-1.4-1.6-2.9-2.4-4.5c-0.8-1.6-1.5-3.2-2.1-4.8c-0.7-1.6-1.3-3.3-1.9-5.1
			c-1.2-3.5-2.2-7.2-3.2-11.2s-1.7-8.2-2.3-12.7c-0.7-4.5-1.2-9.3-1.6-14.3c-0.3-3.7-0.6-9.6-0.7-16.9l-0.4-26.1l0.1-66.5l1.1-63.6
			l0.9-22.4l0.5-7.4c0.2-2,0.3-3.4,0.5-4.3c0.6-2.9,1.2-5.6,1.8-8.1c0.6-2.4,1.2-4.7,1.9-7.1c0.7-2.2,1.4-4.3,2.2-6.2
			c0.7-1.9,1.6-3.8,2.5-5.6c0.9-1.8,1.8-3.5,2.9-5.1c1-1.7,2.1-3.3,3.4-4.9c1.2-1.6,2.5-3.2,3.9-4.8c1.4-1.6,3-3.2,4.6-4.9
			c1.9-1.9,4-3.8,6-5.6c2-1.7,4-3.3,6.2-4.7c2.1-1.5,4.3-2.8,6.5-3.9c2.2-1.2,4.6-2.3,7-3.2c2.5-1,5-1.8,7.8-2.6
			c2.9-0.8,5.8-1.5,8.7-2.1c3.1-0.6,6.3-1.1,9.8-1.6c3.5-0.5,7.2-0.9,11.2-1.2c2.8-0.2,7.5-0.5,13.8-0.6l22.8-0.5L3228.4-203.9
			L3228.4-203.9z"/>
	</g>
</g>
<g>
	<path fill="#1ED760" d="M557.3,18c-12.1,0-21.9,9.8-21.9,21.9c0,12.1,9.8,21.9,21.9,21.9c12.1,0,21.9-9.8,21.9-21.9
		S569.4,18,557.3,18L557.3,18z M567.4,49.6c-0.4,0.7-1.2,0.8-1.9,0.4c-5.2-3.1-11.6-3.8-19.2-2.1c-0.7,0.2-1.5-0.3-1.6-1
		s0.3-1.5,1-1.6c8.3-1.9,15.5-1.1,21.3,2.4C567.5,48.1,567.7,48.9,567.4,49.6L567.4,49.6z M570,43.6c-0.5,0.8-1.5,1-2.4,0.6
		c-5.9-3.6-14.9-4.7-21.8-2.6c-0.9,0.3-1.9-0.2-2.1-1.1c-0.3-0.9,0.2-1.9,1.2-2.1c7.9-2.4,17.8-1.3,24.6,2.9
		C570.3,41.8,570.5,42.8,570,43.6L570,43.6z M570.3,37.4c-7.1-4.2-18.7-4.6-25.4-2.5c-1.1,0.3-2.2-0.3-2.6-1.4
		c-0.3-1.1,0.3-2.2,1.4-2.6c7.7-2.4,20.6-1.9,28.7,2.9c1,0.6,1.3,1.8,0.7,2.8C572.5,37.7,571.2,38,570.3,37.4L570.3,37.4z"/>
	<g transform="matrix(.21375 0 0 .21375 .138028 12.655604)">
		<path fill="#1ED760" d="M2762.3,124.3c-17.5-4.1-20.5-7.1-20.5-13.2c0-5.8,5.4-9.6,13.5-9.6c7.8,0,15.7,3,23.8,9
			c0.2,0.2,0.6,0.2,0.8,0.2c0.4,0,0.6-0.2,0.7-0.5l8.6-12c0.4-0.5,0.2-1.2-0.2-1.6c-9.8-7.8-20.7-11.6-33.5-11.6
			c-18.8,0-31.9,11.3-31.9,27.5c0,17.3,11.3,23.5,31,28.2c16.6,3.9,19.5,7.1,19.5,12.8c0,6.4-5.7,10.4-14.8,10.4
			c-10.1,0-18.4-3.4-27.7-11.4c-0.2-0.2-0.6-0.2-0.8-0.2c-0.4,0-0.6,0.1-0.7,0.4l-9.5,11.3c-0.4,0.5-0.4,1.2,0.1,1.6
			c10.8,9.6,24.1,14.7,38.4,14.7c20.2,0,33.4-11.1,33.4-28.2C2792.2,137.5,2783.5,129.5,2762.3,124.3z M2838.1,107.1
			c-8.8,0-16,3.5-21.9,10.6v-7.9c0-0.6-0.5-1.1-1.1-1.1h-15.5c-0.6,0-1.1,0.5-1.1,1.1v88.6c0,0.6,0.5,1.1,1.1,1.1h15.5
			c0.6,0,1.1-0.5,1.1-1.1v-27.9c5.9,6.6,13.1,9.9,21.9,9.9c16.3,0,32.9-12.5,32.9-36.6C2870.8,119.8,2854.3,107.1,2838.1,107.1z
			 M2852.8,143.7c0,12.3-7.6,20.7-18.3,20.7s-18.7-8.9-18.7-20.7c0-11.8,8.1-20.7,18.7-20.7S2852.8,131.7,2852.8,143.7z
			 M2913.2,107.1c-21,0-37.5,16.1-37.5,36.9c0,20.5,16.4,36.5,37.2,36.5c21.1,0,37.6-16.1,37.6-36.7
			C2950.6,123.2,2934.2,107.1,2913.2,107.1z M2913.2,164.6c-11.2,0-19.6-9-19.6-20.8c0-11.9,8.2-20.6,19.4-20.6
			c11.2,0,19.8,9,19.8,21C2932.6,155.9,2924.4,164.6,2913.2,164.6z M2995.4,108.6h-17.1V91c0-0.6-0.5-1.1-1.1-1.1h-15.5
			c-0.6,0-1.1,0.5-1.1,1.1v17.6h-7.5c-0.6,0-1.1,0.5-1.1,1.1V123c0,0.6,0.5,1.1,1.1,1.1h7.5v34.7c0,14,7,21.1,20.7,21.1
			c5.5,0,10.2-1.2,14.6-3.6c0.4-0.2,0.6-0.6,0.6-1v-12.8c0-0.4-0.2-0.7-0.5-1c-0.4-0.2-0.7-0.2-1.1,0c-3,1.6-5.9,2.2-9.2,2.2
			c-5.1,0-7.2-2.3-7.2-7.3v-32.2h17.1c0.6,0,1.1-0.5,1.1-1.1v-13.4C2996.6,109,2996.1,108.6,2995.4,108.6z M3055.2,108.7v-2.2
			c0-6.4,2.4-9.2,7.8-9.2c3.3,0,5.9,0.6,8.8,1.6c0.4,0.1,0.7,0,1.1-0.1c0.2-0.2,0.5-0.6,0.5-1V84.7c0-0.5-0.4-1-0.8-1.1
			c-3.1-1-7-1.8-13-1.8c-14.5,0-22,8.1-22,23.5v3.3h-7.5c-0.6,0-1.2,0.5-1.2,1.1v13.5c0,0.6,0.5,1.1,1.2,1.1h7.5v53.5
			c0,0.6,0.5,1.1,1.1,1.1h15.5c0.6,0,1.1-0.5,1.1-1.1v-53.5h14.6l22.3,53.5c-2.5,5.7-5.1,6.7-8.4,6.7c-2.8,0-5.7-0.8-8.6-2.4
			c-0.2-0.1-0.6-0.1-1-0.1c-0.2,0.1-0.6,0.4-0.7,0.6l-5.3,11.6c-0.2,0.6,0,1.2,0.5,1.4c5.5,3,10.5,4.2,16.6,4.2
			c11.6,0,17.8-5.4,23.5-19.8l27.1-69.9c0.1-0.4,0.1-0.7-0.1-1.1c-0.2-0.4-0.6-0.5-1-0.5h-16.3c-0.5,0-1,0.4-1.1,0.7l-16.6,47.5
			l-18.2-47.6c-0.1-0.5-0.6-0.7-1.1-0.7h-26.3V108.7z M3020.6,108.6H3005c-0.6,0-1.1,0.5-1.1,1.1v68c0,0.6,0.5,1.1,1.1,1.1h15.5
			c0.6,0,1.1-0.5,1.1-1.1v-67.9C3021.8,109,3021.2,108.6,3020.6,108.6z"/>
		<circle fill="#1ED760" cx="3012.8" cy="88.8" r="11.2"/>
	</g>
</g>
<g>
	<path fill="#FF004F" d="M729.4,32.5c2.6,1.8,5.8,2.9,9.2,2.9v-6.6c-0.6,0-1.3-0.1-1.9-0.2v5.2c-3.4,0-6.6-1.1-9.2-2.9v13.4
		c0,6.7-5.4,12.2-12.2,12.2c-2.5,0-4.8-0.8-6.8-2.1c2.2,2.3,5.3,3.7,8.7,3.7c6.7,0,12.2-5.4,12.2-12.2L729.4,32.5L729.4,32.5z
		 M731.8,25.8c-1.3-1.4-2.2-3.3-2.4-5.4v-0.8h-1.8C728.1,22.2,729.6,24.5,731.8,25.8L731.8,25.8z M712.8,49.2
		c-0.7-1-1.1-2.2-1.1-3.4c0-3.1,2.5-5.6,5.6-5.6c0.6,0,1.1,0.1,1.7,0.3v-6.7c-0.6-0.1-1.3-0.1-1.9-0.1V39c-0.5-0.2-1.1-0.3-1.7-0.3
		c-3.1,0-5.6,2.5-5.6,5.6C709.7,46.4,711,48.3,712.8,49.2z"/>
	<path d="M727.5,30.9c2.6,1.8,5.8,2.9,9.2,2.9v-5.2c-1.9-0.4-3.6-1.4-4.9-2.8c-2.2-1.4-3.7-3.6-4.2-6.2h-4.8v26.3
		c0,3.1-2.5,5.5-5.6,5.5c-1.8,0-3.4-0.9-4.4-2.2c-1.8-0.9-3.1-2.8-3.1-5c0-3.1,2.5-5.6,5.6-5.6c0.6,0,1.2,0.1,1.7,0.3v-5.2
		c-6.6,0.1-11.9,5.5-11.9,12.2c0,3.3,1.3,6.3,3.5,8.5c1.9,1.3,4.3,2.1,6.8,2.1c6.7,0,12.2-5.4,12.2-12.2L727.5,30.9L727.5,30.9z"/>
	<path fill="#00F2EA" d="M736.7,28.6v-1.4c-1.7,0-3.4-0.5-4.9-1.4C733.1,27.2,734.8,28.2,736.7,28.6z M727.6,19.6
		c0-0.3-0.1-0.5-0.1-0.8V18h-6.6v26.3c0,3.1-2.5,5.5-5.6,5.5c-0.9,0-1.8-0.2-2.5-0.6c1,1.3,2.6,2.2,4.4,2.2c3.1,0,5.6-2.5,5.6-5.5
		V19.6H727.6z M717,33.7v-1.5c-0.6-0.1-1.1-0.1-1.7-0.1c-6.7,0-12.2,5.4-12.2,12.2c0,4.2,2.1,7.9,5.4,10.1c-2.1-2.2-3.5-5.2-3.5-8.5
		C705.1,39.3,710.4,33.9,717,33.7z"/>
	<path fill="#FF004F" d="M813.4,50.9c4.8,0,8.7-3.9,8.7-8.6c0-4.8-3.9-8.6-8.7-8.6h-1.3c4.8,0,8.7,3.9,8.7,8.6s-3.9,8.6-8.7,8.6
		H813.4z"/>
	<path fill="#00F2EA" d="M812,33.7h-1.3c-4.8,0-8.7,3.9-8.7,8.6s3.9,8.6,8.7,8.6h1.3c-4.8,0-8.7-3.9-8.7-8.6
		C803.3,37.5,807.2,33.7,812,33.7z"/>
	<path d="M745.8,29.8v4.4h5.1v16.7h5.1V34.3h4.2l1.4-4.5L745.8,29.8L745.8,29.8z M787.8,29.8v4.4h5.1v16.7h5.1V34.3h4.2l1.4-4.5
		L787.8,29.8L787.8,29.8z M762.6,32.2c0-1.4,1.1-2.5,2.5-2.5c1.4,0,2.5,1.1,2.5,2.5c0,1.4-1.1,2.5-2.5,2.5
		C763.7,34.7,762.6,33.6,762.6,32.2z M762.6,36.5h5v14.3h-5V36.5z M769.8,29.8v21.1h5v-5.4l1.6-1.4l4.9,7h5.4l-7-10.2l6.3-6.2h-6.1
		l-5,5v-9.8H769.8z M823.8,29.8v21.1h5v-5.4l1.5-1.4l4.9,7h5.4l-7-10.2l6.3-6.2h-6.1l-5,5v-9.8H823.8z"/>
	<path d="M812.1,50.9c4.8,0,8.7-3.9,8.7-8.6c0-4.8-3.9-8.6-8.7-8.6H812c-4.8,0-8.7,3.9-8.7,8.6s3.9,8.6,8.7,8.6H812.1z M807.8,42.3
		c0-2.3,1.9-4.2,4.2-4.2c2.3,0,4.2,1.9,4.2,4.2s-1.9,4.2-4.2,4.2C809.7,46.5,807.8,44.6,807.8,42.3z"/>
</g>
<g transform="matrix(.223746 0 0 .223746 4.958506 17.693975)">
	<path fill="#FF0000" d="M202.2,46.1c-2.3-8.5-9-15.1-17.4-17.4c-15.3-4.2-76.7-4.2-76.7-4.2s-61.5,0.1-76.7,4.3
		c-8.5,2.3-15.1,9-17.4,17.4c-4,15.3-4,47.2-4,47.2s0,31.9,4.2,47.3c2.3,8.5,9,15.1,17.4,17.4c15.3,4.2,76.7,4.2,76.7,4.2
		s61.5,0,76.7-4.2c8.5-2.3,15.1-9,17.4-17.4c4.2-15.3,4.2-47.3,4.2-47.3S206.3,61.5,202.2,46.1z"/>
	<path fill="#FFFFFF" d="M139.4,93.5l-51-29.5V123L139.4,93.5z"/>
	<g>
		<path fill="#282828" d="M295,149.9c-3.9-2.6-6.7-6.7-8.3-12.2c-1.6-5.6-2.4-12.9-2.4-22.1V103c0-9.2,0.9-16.8,2.8-22.3
			c1.9-5.7,4.8-9.7,8.8-12.2c4-2.5,9.2-3.9,15.6-3.9c6.3,0,11.5,1.3,15.3,3.9c3.8,2.6,6.7,6.7,8.5,12.2c1.8,5.6,2.6,13,2.6,22.2
			v12.5c0,9.2-0.9,16.5-2.6,22.1c-1.8,5.6-4.5,9.6-8.5,12.2c-3.9,2.5-9.2,3.9-15.8,3.9C304.2,153.8,298.9,152.4,295,149.9z
			 M316.9,136.4c1.1-2.8,1.6-7.4,1.6-13.8V95.7c0-6.2-0.5-10.7-1.6-13.5c-1.1-2.9-3-4.3-5.7-4.3c-2.6,0-4.4,1.4-5.6,4.3
			s-1.6,7.3-1.6,13.5v26.9c0,6.3,0.5,11,1.5,13.8s2.9,4.2,5.7,4.2C313.8,140.5,315.7,139.1,316.9,136.4z M593.5,115.8v4.4l0.5,12.5
			c0.4,2.8,1,4.8,2,6.1c1,1.3,2.6,1.9,4.8,1.9c2.9,0,4.9-1.1,5.9-3.4c1.1-2.3,1.6-6.1,1.8-11.2l16.8,1c0.1,0.8,0.1,1.8,0.1,3
			c0,7.9-2.1,13.9-6.6,17.8c-4.4,3.9-10.5,5.9-18.4,5.9c-9.6,0-16.3-3-20.1-9c-3.8-5.9-5.8-15.3-5.8-27.8v-15.3
			c0-12.9,2-22.3,5.9-28.3c4-5.9,10.9-9,20.4-9c6.7,0,11.7,1.3,15.3,3.7c3.5,2.4,6.1,6.2,7.6,11.4c1.5,5.2,2.1,12.2,2.1,21.3v14.8
			h-32.4V115.8z M596,79.5c-1,1.3-1.6,3.2-2,5.9s-0.5,6.9-0.5,12.6v6.2h14.1V98c0-5.6-0.1-9.7-0.5-12.6s-1-4.9-2-6.1
			s-2.5-1.8-4.5-1.8C598.4,77.7,596.9,78.3,596,79.5z M247.8,114.2l-22.1-79.8h19.3l7.7,36.1c2,9,3.4,16.5,4.4,22.7h0.5
			c0.6-4.5,2.1-12,4.4-22.6l7.9-36.2h19.3L267,114v38.2H248v-38.1H247.8z"/>
		<g>
			<path id="B" fill="#282828" d="M400.5,66.2v86.2h-15.1l-1.6-10.6h-0.4c-4.2,7.9-10.3,12-18.5,12c-5.7,0-10-1.9-12.6-5.7
				c-2.8-3.8-4-9.6-4-17.5V66.2h19.4v63.2c0,3.8,0.4,6.6,1.3,8.2c0.9,1.6,2.3,2.4,4.2,2.4c1.6,0,3.3-0.5,4.8-1.5s2.6-2.4,3.4-3.9
				V66.2H400.5z"/>
		</g>
		<g>
			<path id="B_1_" fill="#282828" d="M500.1,66.2v86.2h-15.1l-1.6-10.6h-0.4c-4.2,7.9-10.3,12-18.5,12c-5.7,0-10-1.9-12.6-5.7
				c-2.8-3.8-4-9.6-4-17.5V66.2h19.4v63.2c0,3.8,0.4,6.6,1.3,8.2c0.9,1.6,2.3,2.4,4.2,2.4c1.6,0,3.3-0.5,4.8-1.5s2.6-2.4,3.4-3.9
				V66.2H500.1z"/>
		</g>
		<path fill="#282828" d="M453.3,50.1H434v102.3H415V50.1h-19.3V34.4h57.4v15.6H453.3z M564.2,80c-1.1-5.4-3-9.3-5.7-11.9
			c-2.6-2.4-6.2-3.7-10.9-3.7c-3.5,0-6.9,1-10,3c-3.2,2-5.4,4.7-7.2,7.9h-0.1V30h-18.7v122.3h16l2-8.2h0.4c1.5,2.9,3.8,5.2,6.7,6.9
			c3.1,1.7,6.5,2.5,10,2.5c6.6,0,11.4-3,14.5-9.1c3-6.1,4.7-15.5,4.7-28.3v-13.6C566,93,565.3,85.4,564.2,80z M546.4,115.2
			c0,6.3-0.3,11.2-0.8,14.8c-0.5,3.5-1.4,6.1-2.6,7.6c-1.3,1.5-2.9,2.3-4.9,2.3c-1.6,0-3-0.4-4.4-1.1c-1.4-0.8-2.4-1.9-3.3-3.4v-49
			c0.6-2.4,1.8-4.3,3.4-5.8c1.6-1.5,3.3-2.3,5.2-2.3c2,0,3.5,0.8,4.5,2.3c1.1,1.5,1.8,4.2,2.3,7.8c0.4,3.7,0.6,8.8,0.6,15.6V115.2z"
			/>
	</g>
</g>
</svg>
