<?xml version="1.0" encoding="utf-8"?>
<!-- Generator: Adobe Illustrator 24.0.1, SVG Export Plug-In . SVG Version: 6.00 Build 0)  -->
<svg version="1.0" id="Layer_1" xmlns="http://www.w3.org/2000/svg" xmlns:xlink="http://www.w3.org/1999/xlink" x="0px" y="0px"
	 viewBox="0 0 290.3 58.8" enable-background="new 0 0 290.3 58.8" xml:space="preserve">
<polygon points="0,9.8 0,19.6 0,29.4 0,39.2 0,49 9.8,49 9.8,39.2 9.8,29.4 9.8,19.6 9.8,9.8 "/>
<rect x="9.8" width="9.8" height="9.8"/>
<polygon points="39.2,9.8 29.4,9.8 19.6,9.8 19.6,19.6 29.4,19.6 39.2,19.6 49,19.6 49,9.8 "/>
<rect x="49" width="9.8" height="9.8"/>
<polygon points="58.8,9.8 58.8,19.6 58.8,29.4 58.8,39.2 58.8,49 68.6,49 68.6,39.2 68.6,29.4 68.6,19.6 68.6,9.8 "/>
<polygon points="49,49 39.2,49 29.4,49 19.6,49 9.8,49 9.8,58.8 19.6,58.8 29.4,58.8 39.2,58.8 49,58.8 58.8,58.8 58.8,49 "/>
<path d="M89.7,54.3v-19h19v3.2H96.1v3.2h9.5v3.2h-9.5v6.3h12.7v3.2L89.7,54.3L89.7,54.3z"/>
<path d="M115.1,54.3v-19h3.2v3.2h3.2v3.2h3.2v-3.2h3.2v-3.2h6.3v19h-6.3v-9.5h-3.2v3.2h-3.2v-3.2h-3.2v9.5
	C118.3,54.3,115.1,54.3,115.1,54.3z"/>
<path d="M140.5,54.3v-19h15.9v3.2h3.2v3.2h-3.2v3.2h3.2v6.3h-3.2v3.2L140.5,54.3L140.5,54.3z M153.2,41.6v-3.2h-6.3v3.2H153.2z
	 M153.2,51.1v-6.3h-6.3v6.3H153.2z"/>
<path d="M165.9,54.3v-19h15.9v3.2h3.2v6.3h-3.2v3.2h-3.2v3.2h-3.2v-3.2h-3.2v6.3L165.9,54.3L165.9,54.3z M178.5,44.7v-6.3h-6.3v6.3
	H178.5z M178.5,54.3v-3.2h6.3v3.2C184.9,54.3,178.5,54.3,178.5,54.3z"/>
<path d="M194.4,54.3v-3.2h3.2V38.4h-3.2v-3.2h12.7v3.2h-3.2v12.7h3.2v3.2C207.1,54.3,194.4,54.3,194.4,54.3z"/>
<rect x="226.1" y="28.9" width="3.2" height="3.2"/>
<g>
	<path d="M89.7,23.9V4.5h16.2v3.2h3.2v6.5h-3.2v3.2h-9.7v6.5C96.2,23.9,89.7,23.9,89.7,23.9z M102.7,14.2V7.8h-6.5v6.5H102.7z"/>
	<path d="M115.6,23.9V4.5h16.2v3.2h3.2v6.5h-3.2v3.2h-3.2v3.2h-3.2v-3.2h-3.2v6.5C122.1,23.9,115.6,23.9,115.6,23.9z M128.5,14.2
		V7.8h-6.5v6.5H128.5z M128.5,23.9v-3.2h6.5v3.2H128.5z"/>
	<path d="M144.7,23.9v-3.2h-3.2V7.8h3.2V4.5h12.9v3.2h3.2v13h-3.2v3.2H144.7z M154.4,20.7V7.8h-6.5v12.9H154.4z"/>
	<path d="M170.6,23.9v-3.2h-3.2V7.8h3.2V4.5h12.9v3.2h3.2V11h-6.5V7.8h-6.5v12.9h6.5v-3.2h-3.2v-3.2h9.7v9.7H170.6z"/>
	<path d="M193.2,23.9V4.5h16.2v3.2h3.2v6.5h-3.2v3.2h-3.2v3.2H203v-3.2h-3.2v6.5C199.7,23.9,193.2,23.9,193.2,23.9z M206.2,14.2V7.8
		h-6.5v6.5H206.2z M206.2,23.9v-3.2h6.5v3.2H206.2z"/>
	<path d="M219.1,23.9V7.8h3.2v6.5h6.5V7.8h-6.5V4.5h12.9v3.2h3.2v16.2h-9.7v-6.5h-6.5v6.5L219.1,23.9L219.1,23.9z"/>
	<path d="M245,23.9V4.5h3.2v3.2h3.2V11h3.2V7.8h3.2V4.5h6.5v19.4h-6.5v-9.7h-3.2v3.2h-3.2v-3.2h-3.2v9.7H245z"/>
	<path d="M270.9,23.9V7.8h3.2v6.5h6.5V7.8h-6.5V4.5h12.9v3.2h3.2v16.2h-9.7v-6.5h-6.5v6.5L270.9,23.9L270.9,23.9z"/>
</g>
<polygon fill="#FFFFFF" points="49,9.8 49,19.6 39.2,19.6 29.4,19.6 19.6,19.6 19.6,9.8 9.8,9.8 9.8,19.6 9.8,29.4 9.8,39.2 9.8,49 
	19.6,49 29.4,49 39.2,49 49,49 58.8,49 58.8,39.2 58.8,29.4 58.8,19.6 58.8,9.8 "/>
<rect x="19.6" y="29.4" width="9.8" height="9.8"/>
<rect x="39.2" y="29.4" width="9.8" height="9.8"/>
<path d="M232.5,38.4v-3.2h-6.3v0v-1.7V32H223v1.5v1.7v0h-3.2v3.2h-3.2v12.7h3.2v3.2h12.7v-3.2h3.2V38.4H232.5z M229.3,51.1H223V38.4
	h6.3V51.1z"/>
</svg>
